<svg xmlns="http://www.w3.org/2000/svg" viewBox="0 0 1536 791" preserveAspectRatio="xMidYMid" width="1536" height="791" style="shape-rendering: auto; display: block; background: rgb(4, 3, 3);" xmlns:xlink="http://www.w3.org/1999/xlink"><g><defs>
  <filter height="170.20" width="12" y="-6" x="-6" filterUnits="userSpaceOnUse" id="f-4ovtgx0bqfw">
    <feGaussianBlur result="blur1" stdDeviation="5"></feGaussianBlur>
    <feMorphology result="dilate" in="SourceGraphic" radius="1.25" operator="dilate"></feMorphology>
    <feComponentTransfer result="dark" in="dilate">
    <feFuncR slope="0.33" type="linear"></feFuncR>
    <feFuncG slope="0.33" type="linear"></feFuncG>
    <feFuncB slope="0.33" type="linear"></feFuncB>
    </feComponentTransfer>
    <feGaussianBlur result="blur2" in="dark" stdDeviation="2.50"></feGaussianBlur>
    <feMerge>
      <feMergeNode in="blur1"></feMergeNode>
      <feMergeNode in="blur2"></feMergeNode>
      <feMergeNode in="SourceGraphic"></feMergeNode>
    </feMerge>
  </filter>
</defs><path stroke-width="1" stroke="#0c3866" d="M296.73 0L296.73 791"></path>
<path filter="url(#f-4ovtgx0bqfw)" fill="#222222" d="M0 0L-1 158.20 A1 1 0 0 0 1 158.20 Z">
<animateTransform begin="-1.12s" keyTimes="0;1" values="296.73 -170.20;296.73 791" repeatCount="indefinite" dur="1.67s" type="translate" attributeName="transform"></animateTransform>
</path><path stroke-width="1" stroke="#0c3866" d="M401.45 0L401.45 791"></path>
<path filter="url(#f-4ovtgx0bqfw)" fill="#ffc20e" d="M0 0L-1 158.20 A1 1 0 0 0 1 158.20 Z">
<animateTransform begin="-0.10s" keyTimes="0;1" values="401.45 -170.20;401.45 791" repeatCount="indefinite" dur="1.11s" type="translate" attributeName="transform"></animateTransform>
</path><path stroke-width="1" stroke="#0c3866" d="M506.18 0L506.18 791"></path>
<path filter="url(#f-4ovtgx0bqfw)" fill="#007cc0" d="M0 0L-1 158.20 A1 1 0 0 0 1 158.20 Z">
<animateTransform begin="-0.91s" keyTimes="0;1" values="506.18 -170.20;506.18 791" repeatCount="indefinite" dur="3.33s" type="translate" attributeName="transform"></animateTransform>
</path><path stroke-width="1" stroke="#0c3866" d="M610.91 0L610.91 791"></path>
<path filter="url(#f-4ovtgx0bqfw)" fill="#ce181e" d="M0 0L-1 158.20 A1 1 0 0 0 1 158.20 Z">
<animateTransform begin="-1.37s" keyTimes="0;1" values="610.91 -170.20;610.91 791" repeatCount="indefinite" dur="1.67s" type="translate" attributeName="transform"></animateTransform>
</path><path stroke-width="1" stroke="#0c3866" d="M715.64 0L715.64 791"></path>
<path filter="url(#f-4ovtgx0bqfw)" fill="#222222" d="M0 0L-1 158.20 A1 1 0 0 0 1 158.20 Z">
<animateTransform begin="-0.84s" keyTimes="0;1" values="715.64 -170.20;715.64 791" repeatCount="indefinite" dur="1.11s" type="translate" attributeName="transform"></animateTransform>
</path><path stroke-width="1" stroke="#0c3866" d="M820.36 0L820.36 791"></path>
<path filter="url(#f-4ovtgx0bqfw)" fill="#49c0b6" d="M0 0L-1 158.20 A1 1 0 0 0 1 158.20 Z">
<animateTransform begin="-0.25s" keyTimes="0;1" values="820.36 -170.20;820.36 791" repeatCount="indefinite" dur="1.67s" type="translate" attributeName="transform"></animateTransform>
</path><path stroke-width="1" stroke="#0c3866" d="M925.09 0L925.09 791"></path>
<path filter="url(#f-4ovtgx0bqfw)" fill="#222222" d="M0 0L-1 158.20 A1 1 0 0 0 1 158.20 Z">
<animateTransform begin="-1.45s" keyTimes="0;1" values="925.09 -170.20;925.09 791" repeatCount="indefinite" dur="3.33s" type="translate" attributeName="transform"></animateTransform>
</path><path stroke-width="1" stroke="#0c3866" d="M1029.82 0L1029.82 791"></path>
<path filter="url(#f-4ovtgx0bqfw)" fill="#222222" d="M0 0L-1 158.20 A1 1 0 0 0 1 158.20 Z">
<animateTransform begin="-2.70s" keyTimes="0;1" values="1029.82 -170.20;1029.82 791" repeatCount="indefinite" dur="3.33s" type="translate" attributeName="transform"></animateTransform>
</path><path stroke-width="1" stroke="#0c3866" d="M1134.55 0L1134.55 791"></path>
<path filter="url(#f-4ovtgx0bqfw)" fill="#49c0b6" d="M0 0L-1 158.20 A1 1 0 0 0 1 158.20 Z">
<animateTransform begin="-0.94s" keyTimes="0;1" values="1134.55 -170.20;1134.55 791" repeatCount="indefinite" dur="1.11s" type="translate" attributeName="transform"></animateTransform>
</path><path stroke-width="1" stroke="#0c3866" d="M1239.27 0L1239.27 791"></path>
<path filter="url(#f-4ovtgx0bqfw)" fill="#49c0b6" d="M0 0L-1 158.20 A1 1 0 0 0 1 158.20 Z">
<animateTransform begin="-2.48s" keyTimes="0;1" values="1239.27 -170.20;1239.27 791" repeatCount="indefinite" dur="3.33s" type="translate" attributeName="transform"></animateTransform>
</path><g></g></g><!-- [ldio] generated by https://loading.io --></svg>