<svg xmlns="http://www.w3.org/2000/svg" viewBox="0 0 1536 791" preserveAspectRatio="xMidYMid" width="1536" height="791" style="shape-rendering: auto; display: block; background: rgb(102, 102, 102);" xmlns:xlink="http://www.w3.org/1999/xlink"><g><style type="text/css">
  @keyframes ld-fall {
    0%    { transform: translate(0,0px) rotate3d(1,1,1,0deg); }
    16.6% { transform: translate(0,133.83333333333334px) rotate3d(1,1,1,180deg); }
    33.3% { transform: translate(0,267.6666666666667px) rotate3d(1,1,1,360deg); }
    50.0% { transform: translate(0,401.5px) rotate3d(1,1,1,540deg); }
    66.6% { transform: translate(0,535.3333333333334px) rotate3d(1,1,1,720deg); }
    83.3% { transform: translate(0,669.1666666666666px) rotate3d(1,1,1,900deg); }
    100%  { transform: translate(0,803px) rotate3d(1,1,1,1080deg) ; }
  }
  .ld.ld-fall {
    animation: ld-fall 100s linear infinite;
  }
  .ld.ld-fall2 {
    animation: ld-fall 100s linear infinite;
    animation-fill-mode: forwards;
  }
</style>
  <g transform="translate(0 693.4769887841554)"><g transform="translate(603.9144045925698 0)">
<g style="animation-delay:-50.31930664022903s;animation-duration:100s" class="ld ld-fall2"><path d="M59.5,60.5l-8,23.7c-0.5,1.4-2.5,1.4-2.9,0 l-8-23.7c-0.2-0.5-0.5-0.8-1-1l-23.7-8c-1.4-0.5-1.4-2.5,0-2.9l23.7-8c0.5-0.2,0.8-0.5,1-1l8-23.7c0.5-1.4,2.5-1.4,2.9,0l8,23.7 c0.2,0.5,0.5,0.8,1,1l23.7,8c1.4,0.5,1.4,2.5,0,2.9l-23.7,8C60,59.6,59.6,60,59.5,60.5z" fill="#dddddd" transform="scale(0.3639964906226334) translate(-50 -50)"></path></g></g><g transform="translate(1199.6033309950255 0)">
<g style="animation-delay:-36.878228121412754s;animation-duration:50s" class="ld ld-fall2"><path d="M59.5,60.5l-8,23.7c-0.5,1.4-2.5,1.4-2.9,0 l-8-23.7c-0.2-0.5-0.5-0.8-1-1l-23.7-8c-1.4-0.5-1.4-2.5,0-2.9l23.7-8c0.5-0.2,0.8-0.5,1-1l8-23.7c0.5-1.4,2.5-1.4,2.9,0l8,23.7 c0.2,0.5,0.5,0.8,1,1l23.7,8c1.4,0.5,1.4,2.5,0,2.9l-23.7,8C60,59.6,59.6,60,59.5,60.5z" fill="#ffffff" transform="scale(0.3975908668922442) translate(-50 -50)"></path></g></g><g transform="translate(1305.278456059782 0)">
<g style="animation-delay:-16.592773308246834s;animation-duration:100s" class="ld ld-fall2"><path d="M59.5,60.5l-8,23.7c-0.5,1.4-2.5,1.4-2.9,0 l-8-23.7c-0.2-0.5-0.5-0.8-1-1l-23.7-8c-1.4-0.5-1.4-2.5,0-2.9l23.7-8c0.5-0.2,0.8-0.5,1-1l8-23.7c0.5-1.4,2.5-1.4,2.9,0l8,23.7 c0.2,0.5,0.5,0.8,1,1l23.7,8c1.4,0.5,1.4,2.5,0,2.9l-23.7,8C60,59.6,59.6,60,59.5,60.5z" fill="#aaaaaa" transform="scale(0.34103082253296385) translate(-50 -50)"></path></g></g><g transform="translate(1009.9923161358971 0)">
<g style="animation-delay:-41.29393245578966s;animation-duration:50s" class="ld ld-fall2"><path d="M59.5,60.5l-8,23.7c-0.5,1.4-2.5,1.4-2.9,0 l-8-23.7c-0.2-0.5-0.5-0.8-1-1l-23.7-8c-1.4-0.5-1.4-2.5,0-2.9l23.7-8c0.5-0.2,0.8-0.5,1-1l8-23.7c0.5-1.4,2.5-1.4,2.9,0l8,23.7 c0.2,0.5,0.5,0.8,1,1l23.7,8c1.4,0.5,1.4,2.5,0,2.9l-23.7,8C60,59.6,59.6,60,59.5,60.5z" fill="#dddddd" transform="scale(0.3539299703726959) translate(-50 -50)"></path></g></g><g transform="translate(585.4599120613767 0)">
<g style="animation-delay:-93.49275424818912s;animation-duration:100s" class="ld ld-fall2"><path d="M59.5,60.5l-8,23.7c-0.5,1.4-2.5,1.4-2.9,0 l-8-23.7c-0.2-0.5-0.5-0.8-1-1l-23.7-8c-1.4-0.5-1.4-2.5,0-2.9l23.7-8c0.5-0.2,0.8-0.5,1-1l8-23.7c0.5-1.4,2.5-1.4,2.9,0l8,23.7 c0.2,0.5,0.5,0.8,1,1l23.7,8c1.4,0.5,1.4,2.5,0,2.9l-23.7,8C60,59.6,59.6,60,59.5,60.5z" fill="#aaaaaa" transform="scale(0.4863197732102785) translate(-50 -50)"></path></g></g><g transform="translate(310.33451308865637 0)">
<g style="animation-delay:-41.704822675622246s;animation-duration:50s" class="ld ld-fall2"><path d="M59.5,60.5l-8,23.7c-0.5,1.4-2.5,1.4-2.9,0 l-8-23.7c-0.2-0.5-0.5-0.8-1-1l-23.7-8c-1.4-0.5-1.4-2.5,0-2.9l23.7-8c0.5-0.2,0.8-0.5,1-1l8-23.7c0.5-1.4,2.5-1.4,2.9,0l8,23.7 c0.2,0.5,0.5,0.8,1,1l23.7,8c1.4,0.5,1.4,2.5,0,2.9l-23.7,8C60,59.6,59.6,60,59.5,60.5z" fill="#ffffff" transform="scale(0.23982316775563653) translate(-50 -50)"></path></g></g><g transform="translate(1254.5934680051355 0)">
<g style="animation-delay:-46.70226999886432s;animation-duration:50s" class="ld ld-fall2"><path d="M59.5,60.5l-8,23.7c-0.5,1.4-2.5,1.4-2.9,0 l-8-23.7c-0.2-0.5-0.5-0.8-1-1l-23.7-8c-1.4-0.5-1.4-2.5,0-2.9l23.7-8c0.5-0.2,0.8-0.5,1-1l8-23.7c0.5-1.4,2.5-1.4,2.9,0l8,23.7 c0.2,0.5,0.5,0.8,1,1l23.7,8c1.4,0.5,1.4,2.5,0,2.9l-23.7,8C60,59.6,59.6,60,59.5,60.5z" fill="#dddddd" transform="scale(0.41440489650109713) translate(-50 -50)"></path></g></g><g transform="translate(1030.1645123525477 0)">
<g style="animation-delay:-31.07850858184773s;animation-duration:50s" class="ld ld-fall2"><path d="M59.5,60.5l-8,23.7c-0.5,1.4-2.5,1.4-2.9,0 l-8-23.7c-0.2-0.5-0.5-0.8-1-1l-23.7-8c-1.4-0.5-1.4-2.5,0-2.9l23.7-8c0.5-0.2,0.8-0.5,1-1l8-23.7c0.5-1.4,2.5-1.4,2.9,0l8,23.7 c0.2,0.5,0.5,0.8,1,1l23.7,8c1.4,0.5,1.4,2.5,0,2.9l-23.7,8C60,59.6,59.6,60,59.5,60.5z" fill="#dddddd" transform="scale(0.2889117339434831) translate(-50 -50)"></path></g></g><g transform="translate(1019.3407866362058 0)">
<g style="animation-delay:-5.801265369475353s;animation-duration:50s" class="ld ld-fall2"><path d="M59.5,60.5l-8,23.7c-0.5,1.4-2.5,1.4-2.9,0 l-8-23.7c-0.2-0.5-0.5-0.8-1-1l-23.7-8c-1.4-0.5-1.4-2.5,0-2.9l23.7-8c0.5-0.2,0.8-0.5,1-1l8-23.7c0.5-1.4,2.5-1.4,2.9,0l8,23.7 c0.2,0.5,0.5,0.8,1,1l23.7,8c1.4,0.5,1.4,2.5,0,2.9l-23.7,8C60,59.6,59.6,60,59.5,60.5z" fill="#aaaaaa" transform="scale(0.4879039281509212) translate(-50 -50)"></path></g></g><g transform="translate(239.5757215568421 0)">
<g style="animation-delay:-45.894076753501245s;animation-duration:100s" class="ld ld-fall2"><path d="M59.5,60.5l-8,23.7c-0.5,1.4-2.5,1.4-2.9,0 l-8-23.7c-0.2-0.5-0.5-0.8-1-1l-23.7-8c-1.4-0.5-1.4-2.5,0-2.9l23.7-8c0.5-0.2,0.8-0.5,1-1l8-23.7c0.5-1.4,2.5-1.4,2.9,0l8,23.7 c0.2,0.5,0.5,0.8,1,1l23.7,8c1.4,0.5,1.4,2.5,0,2.9l-23.7,8C60,59.6,59.6,60,59.5,60.5z" fill="#ffffff" transform="scale(0.4754618966284007) translate(-50 -50)"></path></g></g><g transform="translate(1237.6289295831234 0)">
<g style="animation-delay:-61.98653831305787s;animation-duration:100s" class="ld ld-fall2"><path d="M59.5,60.5l-8,23.7c-0.5,1.4-2.5,1.4-2.9,0 l-8-23.7c-0.2-0.5-0.5-0.8-1-1l-23.7-8c-1.4-0.5-1.4-2.5,0-2.9l23.7-8c0.5-0.2,0.8-0.5,1-1l8-23.7c0.5-1.4,2.5-1.4,2.9,0l8,23.7 c0.2,0.5,0.5,0.8,1,1l23.7,8c1.4,0.5,1.4,2.5,0,2.9l-23.7,8C60,59.6,59.6,60,59.5,60.5z" fill="#dddddd" transform="scale(0.3485091530810602) translate(-50 -50)"></path></g></g><g transform="translate(988.9706743886892 0)">
<g style="animation-delay:-1.7872698014639223s;animation-duration:100s" class="ld ld-fall2"><path d="M59.5,60.5l-8,23.7c-0.5,1.4-2.5,1.4-2.9,0 l-8-23.7c-0.2-0.5-0.5-0.8-1-1l-23.7-8c-1.4-0.5-1.4-2.5,0-2.9l23.7-8c0.5-0.2,0.8-0.5,1-1l8-23.7c0.5-1.4,2.5-1.4,2.9,0l8,23.7 c0.2,0.5,0.5,0.8,1,1l23.7,8c1.4,0.5,1.4,2.5,0,2.9l-23.7,8C60,59.6,59.6,60,59.5,60.5z" fill="#aaaaaa" transform="scale(0.28769745032915406) translate(-50 -50)"></path></g></g><g transform="translate(22.703966008164986 0)">
<g style="animation-delay:-54.03828024444645s;animation-duration:100s" class="ld ld-fall2"><path d="M59.5,60.5l-8,23.7c-0.5,1.4-2.5,1.4-2.9,0 l-8-23.7c-0.2-0.5-0.5-0.8-1-1l-23.7-8c-1.4-0.5-1.4-2.5,0-2.9l23.7-8c0.5-0.2,0.8-0.5,1-1l8-23.7c0.5-1.4,2.5-1.4,2.9,0l8,23.7 c0.2,0.5,0.5,0.8,1,1l23.7,8c1.4,0.5,1.4,2.5,0,2.9l-23.7,8C60,59.6,59.6,60,59.5,60.5z" fill="#ffffff" transform="scale(0.2744452440320175) translate(-50 -50)"></path></g></g><g transform="translate(1142.2849636639444 0)">
<g style="animation-delay:-51.855612338700695s;animation-duration:100s" class="ld ld-fall2"><path d="M59.5,60.5l-8,23.7c-0.5,1.4-2.5,1.4-2.9,0 l-8-23.7c-0.2-0.5-0.5-0.8-1-1l-23.7-8c-1.4-0.5-1.4-2.5,0-2.9l23.7-8c0.5-0.2,0.8-0.5,1-1l8-23.7c0.5-1.4,2.5-1.4,2.9,0l8,23.7 c0.2,0.5,0.5,0.8,1,1l23.7,8c1.4,0.5,1.4,2.5,0,2.9l-23.7,8C60,59.6,59.6,60,59.5,60.5z" fill="#ffffff" transform="scale(0.23595477895110345) translate(-50 -50)"></path></g></g><g transform="translate(891.1169921255805 0)">
<g style="animation-delay:-36.12961995266794s;animation-duration:50s" class="ld ld-fall2"><path d="M59.5,60.5l-8,23.7c-0.5,1.4-2.5,1.4-2.9,0 l-8-23.7c-0.2-0.5-0.5-0.8-1-1l-23.7-8c-1.4-0.5-1.4-2.5,0-2.9l23.7-8c0.5-0.2,0.8-0.5,1-1l8-23.7c0.5-1.4,2.5-1.4,2.9,0l8,23.7 c0.2,0.5,0.5,0.8,1,1l23.7,8c1.4,0.5,1.4,2.5,0,2.9l-23.7,8C60,59.6,59.6,60,59.5,60.5z" fill="#ffffff" transform="scale(0.2903587587412151) translate(-50 -50)"></path></g></g><g transform="translate(294.46661183046905 0)">
<g style="animation-delay:-4.357803359693714s;animation-duration:50s" class="ld ld-fall2"><path d="M59.5,60.5l-8,23.7c-0.5,1.4-2.5,1.4-2.9,0 l-8-23.7c-0.2-0.5-0.5-0.8-1-1l-23.7-8c-1.4-0.5-1.4-2.5,0-2.9l23.7-8c0.5-0.2,0.8-0.5,1-1l8-23.7c0.5-1.4,2.5-1.4,2.9,0l8,23.7 c0.2,0.5,0.5,0.8,1,1l23.7,8c1.4,0.5,1.4,2.5,0,2.9l-23.7,8C60,59.6,59.6,60,59.5,60.5z" fill="#ffffff" transform="scale(0.3450418123397889) translate(-50 -50)"></path></g></g><g transform="translate(798.4878529331033 0)">
<g style="animation-delay:-36.428430231111655s;animation-duration:50s" class="ld ld-fall2"><path d="M59.5,60.5l-8,23.7c-0.5,1.4-2.5,1.4-2.9,0 l-8-23.7c-0.2-0.5-0.5-0.8-1-1l-23.7-8c-1.4-0.5-1.4-2.5,0-2.9l23.7-8c0.5-0.2,0.8-0.5,1-1l8-23.7c0.5-1.4,2.5-1.4,2.9,0l8,23.7 c0.2,0.5,0.5,0.8,1,1l23.7,8c1.4,0.5,1.4,2.5,0,2.9l-23.7,8C60,59.6,59.6,60,59.5,60.5z" fill="#ffffff" transform="scale(0.35401249416505154) translate(-50 -50)"></path></g></g><g transform="translate(267.54984111703266 0)">
<g style="animation-delay:-51.6541560569012s;animation-duration:100s" class="ld ld-fall2"><path d="M59.5,60.5l-8,23.7c-0.5,1.4-2.5,1.4-2.9,0 l-8-23.7c-0.2-0.5-0.5-0.8-1-1l-23.7-8c-1.4-0.5-1.4-2.5,0-2.9l23.7-8c0.5-0.2,0.8-0.5,1-1l8-23.7c0.5-1.4,2.5-1.4,2.9,0l8,23.7 c0.2,0.5,0.5,0.8,1,1l23.7,8c1.4,0.5,1.4,2.5,0,2.9l-23.7,8C60,59.6,59.6,60,59.5,60.5z" fill="#aaaaaa" transform="scale(0.23822385102691698) translate(-50 -50)"></path></g></g><g transform="translate(408.3244157104118 0)">
<g style="animation-delay:-58.535020370621105s;animation-duration:100s" class="ld ld-fall2"><path d="M59.5,60.5l-8,23.7c-0.5,1.4-2.5,1.4-2.9,0 l-8-23.7c-0.2-0.5-0.5-0.8-1-1l-23.7-8c-1.4-0.5-1.4-2.5,0-2.9l23.7-8c0.5-0.2,0.8-0.5,1-1l8-23.7c0.5-1.4,2.5-1.4,2.9,0l8,23.7 c0.2,0.5,0.5,0.8,1,1l23.7,8c1.4,0.5,1.4,2.5,0,2.9l-23.7,8C60,59.6,59.6,60,59.5,60.5z" fill="#aaaaaa" transform="scale(0.34532418387027664) translate(-50 -50)"></path></g></g><g transform="translate(1438.6040186691912 0)">
<g style="animation-delay:-23.66237838113005s;animation-duration:50s" class="ld ld-fall2"><path d="M59.5,60.5l-8,23.7c-0.5,1.4-2.5,1.4-2.9,0 l-8-23.7c-0.2-0.5-0.5-0.8-1-1l-23.7-8c-1.4-0.5-1.4-2.5,0-2.9l23.7-8c0.5-0.2,0.8-0.5,1-1l8-23.7c0.5-1.4,2.5-1.4,2.9,0l8,23.7 c0.2,0.5,0.5,0.8,1,1l23.7,8c1.4,0.5,1.4,2.5,0,2.9l-23.7,8C60,59.6,59.6,60,59.5,60.5z" fill="#dddddd" transform="scale(0.4851192330425315) translate(-50 -50)"></path></g></g><g transform="translate(6.400374628566334 0)">
<g style="animation-delay:-24.389109201767965s;animation-duration:50s" class="ld ld-fall2"><path d="M59.5,60.5l-8,23.7c-0.5,1.4-2.5,1.4-2.9,0 l-8-23.7c-0.2-0.5-0.5-0.8-1-1l-23.7-8c-1.4-0.5-1.4-2.5,0-2.9l23.7-8c0.5-0.2,0.8-0.5,1-1l8-23.7c0.5-1.4,2.5-1.4,2.9,0l8,23.7 c0.2,0.5,0.5,0.8,1,1l23.7,8c1.4,0.5,1.4,2.5,0,2.9l-23.7,8C60,59.6,59.6,60,59.5,60.5z" fill="#dddddd" transform="scale(0.21557166919833398) translate(-50 -50)"></path></g></g><g transform="translate(635.9197762716351 0)">
<g style="animation-delay:-9.153939961336006s;animation-duration:50s" class="ld ld-fall2"><path d="M59.5,60.5l-8,23.7c-0.5,1.4-2.5,1.4-2.9,0 l-8-23.7c-0.2-0.5-0.5-0.8-1-1l-23.7-8c-1.4-0.5-1.4-2.5,0-2.9l23.7-8c0.5-0.2,0.8-0.5,1-1l8-23.7c0.5-1.4,2.5-1.4,2.9,0l8,23.7 c0.2,0.5,0.5,0.8,1,1l23.7,8c1.4,0.5,1.4,2.5,0,2.9l-23.7,8C60,59.6,59.6,60,59.5,60.5z" fill="#ffffff" transform="scale(0.2275367473553241) translate(-50 -50)"></path></g></g><g transform="translate(1205.2259278568858 0)">
<g style="animation-delay:-40.42052365403344s;animation-duration:100s" class="ld ld-fall2"><path d="M59.5,60.5l-8,23.7c-0.5,1.4-2.5,1.4-2.9,0 l-8-23.7c-0.2-0.5-0.5-0.8-1-1l-23.7-8c-1.4-0.5-1.4-2.5,0-2.9l23.7-8c0.5-0.2,0.8-0.5,1-1l8-23.7c0.5-1.4,2.5-1.4,2.9,0l8,23.7 c0.2,0.5,0.5,0.8,1,1l23.7,8c1.4,0.5,1.4,2.5,0,2.9l-23.7,8C60,59.6,59.6,60,59.5,60.5z" fill="#ffffff" transform="scale(0.4678040507363034) translate(-50 -50)"></path></g></g><g transform="translate(1471.1966915759851 0)">
<g style="animation-delay:-81.16992092372995s;animation-duration:100s" class="ld ld-fall2"><path d="M59.5,60.5l-8,23.7c-0.5,1.4-2.5,1.4-2.9,0 l-8-23.7c-0.2-0.5-0.5-0.8-1-1l-23.7-8c-1.4-0.5-1.4-2.5,0-2.9l23.7-8c0.5-0.2,0.8-0.5,1-1l8-23.7c0.5-1.4,2.5-1.4,2.9,0l8,23.7 c0.2,0.5,0.5,0.8,1,1l23.7,8c1.4,0.5,1.4,2.5,0,2.9l-23.7,8C60,59.6,59.6,60,59.5,60.5z" fill="#dddddd" transform="scale(0.3862962223883707) translate(-50 -50)"></path></g></g><g transform="translate(1447.4540255758984 0)">
<g style="animation-delay:-21.97965455170473s;animation-duration:100s" class="ld ld-fall2"><path d="M59.5,60.5l-8,23.7c-0.5,1.4-2.5,1.4-2.9,0 l-8-23.7c-0.2-0.5-0.5-0.8-1-1l-23.7-8c-1.4-0.5-1.4-2.5,0-2.9l23.7-8c0.5-0.2,0.8-0.5,1-1l8-23.7c0.5-1.4,2.5-1.4,2.9,0l8,23.7 c0.2,0.5,0.5,0.8,1,1l23.7,8c1.4,0.5,1.4,2.5,0,2.9l-23.7,8C60,59.6,59.6,60,59.5,60.5z" fill="#aaaaaa" transform="scale(0.4783829913485027) translate(-50 -50)"></path></g></g></g>
  <g transform="translate(0 -109.52301121584458)"><g transform="translate(603.9144045925698 0)">
<g style="animation-delay:-50.31930664022903s;animation-duration:100s" class="ld ld-fall"><path d="M59.5,60.5l-8,23.7c-0.5,1.4-2.5,1.4-2.9,0 l-8-23.7c-0.2-0.5-0.5-0.8-1-1l-23.7-8c-1.4-0.5-1.4-2.5,0-2.9l23.7-8c0.5-0.2,0.8-0.5,1-1l8-23.7c0.5-1.4,2.5-1.4,2.9,0l8,23.7 c0.2,0.5,0.5,0.8,1,1l23.7,8c1.4,0.5,1.4,2.5,0,2.9l-23.7,8C60,59.6,59.6,60,59.5,60.5z" fill="#dddddd" transform="scale(0.3639964906226334) translate(-50 -50)"></path></g></g><g transform="translate(1199.6033309950255 0)">
<g style="animation-delay:-36.878228121412754s;animation-duration:50s" class="ld ld-fall"><path d="M59.5,60.5l-8,23.7c-0.5,1.4-2.5,1.4-2.9,0 l-8-23.7c-0.2-0.5-0.5-0.8-1-1l-23.7-8c-1.4-0.5-1.4-2.5,0-2.9l23.7-8c0.5-0.2,0.8-0.5,1-1l8-23.7c0.5-1.4,2.5-1.4,2.9,0l8,23.7 c0.2,0.5,0.5,0.8,1,1l23.7,8c1.4,0.5,1.4,2.5,0,2.9l-23.7,8C60,59.6,59.6,60,59.5,60.5z" fill="#ffffff" transform="scale(0.3975908668922442) translate(-50 -50)"></path></g></g><g transform="translate(1305.278456059782 0)">
<g style="animation-delay:-16.592773308246834s;animation-duration:100s" class="ld ld-fall"><path d="M59.5,60.5l-8,23.7c-0.5,1.4-2.5,1.4-2.9,0 l-8-23.7c-0.2-0.5-0.5-0.8-1-1l-23.7-8c-1.4-0.5-1.4-2.5,0-2.9l23.7-8c0.5-0.2,0.8-0.5,1-1l8-23.7c0.5-1.4,2.5-1.4,2.9,0l8,23.7 c0.2,0.5,0.5,0.8,1,1l23.7,8c1.4,0.5,1.4,2.5,0,2.9l-23.7,8C60,59.6,59.6,60,59.5,60.5z" fill="#aaaaaa" transform="scale(0.34103082253296385) translate(-50 -50)"></path></g></g><g transform="translate(1009.9923161358971 0)">
<g style="animation-delay:-41.29393245578966s;animation-duration:50s" class="ld ld-fall"><path d="M59.5,60.5l-8,23.7c-0.5,1.4-2.5,1.4-2.9,0 l-8-23.7c-0.2-0.5-0.5-0.8-1-1l-23.7-8c-1.4-0.5-1.4-2.5,0-2.9l23.7-8c0.5-0.2,0.8-0.5,1-1l8-23.7c0.5-1.4,2.5-1.4,2.9,0l8,23.7 c0.2,0.5,0.5,0.8,1,1l23.7,8c1.4,0.5,1.4,2.5,0,2.9l-23.7,8C60,59.6,59.6,60,59.5,60.5z" fill="#dddddd" transform="scale(0.3539299703726959) translate(-50 -50)"></path></g></g><g transform="translate(585.4599120613767 0)">
<g style="animation-delay:-93.49275424818912s;animation-duration:100s" class="ld ld-fall"><path d="M59.5,60.5l-8,23.7c-0.5,1.4-2.5,1.4-2.9,0 l-8-23.7c-0.2-0.5-0.5-0.8-1-1l-23.7-8c-1.4-0.5-1.4-2.5,0-2.9l23.7-8c0.5-0.2,0.8-0.5,1-1l8-23.7c0.5-1.4,2.5-1.4,2.9,0l8,23.7 c0.2,0.5,0.5,0.8,1,1l23.7,8c1.4,0.5,1.4,2.5,0,2.9l-23.7,8C60,59.6,59.6,60,59.5,60.5z" fill="#aaaaaa" transform="scale(0.4863197732102785) translate(-50 -50)"></path></g></g><g transform="translate(310.33451308865637 0)">
<g style="animation-delay:-41.704822675622246s;animation-duration:50s" class="ld ld-fall"><path d="M59.5,60.5l-8,23.7c-0.5,1.4-2.5,1.4-2.9,0 l-8-23.7c-0.2-0.5-0.5-0.8-1-1l-23.7-8c-1.4-0.5-1.4-2.5,0-2.9l23.7-8c0.5-0.2,0.8-0.5,1-1l8-23.7c0.5-1.4,2.5-1.4,2.9,0l8,23.7 c0.2,0.5,0.5,0.8,1,1l23.7,8c1.4,0.5,1.4,2.5,0,2.9l-23.7,8C60,59.6,59.6,60,59.5,60.5z" fill="#ffffff" transform="scale(0.23982316775563653) translate(-50 -50)"></path></g></g><g transform="translate(1254.5934680051355 0)">
<g style="animation-delay:-46.70226999886432s;animation-duration:50s" class="ld ld-fall"><path d="M59.5,60.5l-8,23.7c-0.5,1.4-2.5,1.4-2.9,0 l-8-23.7c-0.2-0.5-0.5-0.8-1-1l-23.7-8c-1.4-0.5-1.4-2.5,0-2.9l23.7-8c0.5-0.2,0.8-0.5,1-1l8-23.7c0.5-1.4,2.5-1.4,2.9,0l8,23.7 c0.2,0.5,0.5,0.8,1,1l23.7,8c1.4,0.5,1.4,2.5,0,2.9l-23.7,8C60,59.6,59.6,60,59.5,60.5z" fill="#dddddd" transform="scale(0.41440489650109713) translate(-50 -50)"></path></g></g><g transform="translate(1030.1645123525477 0)">
<g style="animation-delay:-31.07850858184773s;animation-duration:50s" class="ld ld-fall"><path d="M59.5,60.5l-8,23.7c-0.5,1.4-2.5,1.4-2.9,0 l-8-23.7c-0.2-0.5-0.5-0.8-1-1l-23.7-8c-1.4-0.5-1.4-2.5,0-2.9l23.7-8c0.5-0.2,0.8-0.5,1-1l8-23.7c0.5-1.4,2.5-1.4,2.9,0l8,23.7 c0.2,0.5,0.5,0.8,1,1l23.7,8c1.4,0.5,1.4,2.5,0,2.9l-23.7,8C60,59.6,59.6,60,59.5,60.5z" fill="#dddddd" transform="scale(0.2889117339434831) translate(-50 -50)"></path></g></g><g transform="translate(1019.3407866362058 0)">
<g style="animation-delay:-5.801265369475353s;animation-duration:50s" class="ld ld-fall"><path d="M59.5,60.5l-8,23.7c-0.5,1.4-2.5,1.4-2.9,0 l-8-23.7c-0.2-0.5-0.5-0.8-1-1l-23.7-8c-1.4-0.5-1.4-2.5,0-2.9l23.7-8c0.5-0.2,0.8-0.5,1-1l8-23.7c0.5-1.4,2.5-1.4,2.9,0l8,23.7 c0.2,0.5,0.5,0.8,1,1l23.7,8c1.4,0.5,1.4,2.5,0,2.9l-23.7,8C60,59.6,59.6,60,59.5,60.5z" fill="#aaaaaa" transform="scale(0.4879039281509212) translate(-50 -50)"></path></g></g><g transform="translate(239.5757215568421 0)">
<g style="animation-delay:-45.894076753501245s;animation-duration:100s" class="ld ld-fall"><path d="M59.5,60.5l-8,23.7c-0.5,1.4-2.5,1.4-2.9,0 l-8-23.7c-0.2-0.5-0.5-0.8-1-1l-23.7-8c-1.4-0.5-1.4-2.5,0-2.9l23.7-8c0.5-0.2,0.8-0.5,1-1l8-23.7c0.5-1.4,2.5-1.4,2.9,0l8,23.7 c0.2,0.5,0.5,0.8,1,1l23.7,8c1.4,0.5,1.4,2.5,0,2.9l-23.7,8C60,59.6,59.6,60,59.5,60.5z" fill="#ffffff" transform="scale(0.4754618966284007) translate(-50 -50)"></path></g></g><g transform="translate(1237.6289295831234 0)">
<g style="animation-delay:-61.98653831305787s;animation-duration:100s" class="ld ld-fall"><path d="M59.5,60.5l-8,23.7c-0.5,1.4-2.5,1.4-2.9,0 l-8-23.7c-0.2-0.5-0.5-0.8-1-1l-23.7-8c-1.4-0.5-1.4-2.5,0-2.9l23.7-8c0.5-0.2,0.8-0.5,1-1l8-23.7c0.5-1.4,2.5-1.4,2.9,0l8,23.7 c0.2,0.5,0.5,0.8,1,1l23.7,8c1.4,0.5,1.4,2.5,0,2.9l-23.7,8C60,59.6,59.6,60,59.5,60.5z" fill="#dddddd" transform="scale(0.3485091530810602) translate(-50 -50)"></path></g></g><g transform="translate(988.9706743886892 0)">
<g style="animation-delay:-1.7872698014639223s;animation-duration:100s" class="ld ld-fall"><path d="M59.5,60.5l-8,23.7c-0.5,1.4-2.5,1.4-2.9,0 l-8-23.7c-0.2-0.5-0.5-0.8-1-1l-23.7-8c-1.4-0.5-1.4-2.5,0-2.9l23.7-8c0.5-0.2,0.8-0.5,1-1l8-23.7c0.5-1.4,2.5-1.4,2.9,0l8,23.7 c0.2,0.5,0.5,0.8,1,1l23.7,8c1.4,0.5,1.4,2.5,0,2.9l-23.7,8C60,59.6,59.6,60,59.5,60.5z" fill="#aaaaaa" transform="scale(0.28769745032915406) translate(-50 -50)"></path></g></g><g transform="translate(22.703966008164986 0)">
<g style="animation-delay:-54.03828024444645s;animation-duration:100s" class="ld ld-fall"><path d="M59.5,60.5l-8,23.7c-0.5,1.4-2.5,1.4-2.9,0 l-8-23.7c-0.2-0.5-0.5-0.8-1-1l-23.7-8c-1.4-0.5-1.4-2.5,0-2.9l23.7-8c0.5-0.2,0.8-0.5,1-1l8-23.7c0.5-1.4,2.5-1.4,2.9,0l8,23.7 c0.2,0.5,0.5,0.8,1,1l23.7,8c1.4,0.5,1.4,2.5,0,2.9l-23.7,8C60,59.6,59.6,60,59.5,60.5z" fill="#ffffff" transform="scale(0.2744452440320175) translate(-50 -50)"></path></g></g><g transform="translate(1142.2849636639444 0)">
<g style="animation-delay:-51.855612338700695s;animation-duration:100s" class="ld ld-fall"><path d="M59.5,60.5l-8,23.7c-0.5,1.4-2.5,1.4-2.9,0 l-8-23.7c-0.2-0.5-0.5-0.8-1-1l-23.7-8c-1.4-0.5-1.4-2.5,0-2.9l23.7-8c0.5-0.2,0.8-0.5,1-1l8-23.7c0.5-1.4,2.5-1.4,2.9,0l8,23.7 c0.2,0.5,0.5,0.8,1,1l23.7,8c1.4,0.5,1.4,2.5,0,2.9l-23.7,8C60,59.6,59.6,60,59.5,60.5z" fill="#ffffff" transform="scale(0.23595477895110345) translate(-50 -50)"></path></g></g><g transform="translate(891.1169921255805 0)">
<g style="animation-delay:-36.12961995266794s;animation-duration:50s" class="ld ld-fall"><path d="M59.5,60.5l-8,23.7c-0.5,1.4-2.5,1.4-2.9,0 l-8-23.7c-0.2-0.5-0.5-0.8-1-1l-23.7-8c-1.4-0.5-1.4-2.5,0-2.9l23.7-8c0.5-0.2,0.8-0.5,1-1l8-23.7c0.5-1.4,2.5-1.4,2.9,0l8,23.7 c0.2,0.5,0.5,0.8,1,1l23.7,8c1.4,0.5,1.4,2.5,0,2.9l-23.7,8C60,59.6,59.6,60,59.5,60.5z" fill="#ffffff" transform="scale(0.2903587587412151) translate(-50 -50)"></path></g></g><g transform="translate(294.46661183046905 0)">
<g style="animation-delay:-4.357803359693714s;animation-duration:50s" class="ld ld-fall"><path d="M59.5,60.5l-8,23.7c-0.5,1.4-2.5,1.4-2.9,0 l-8-23.7c-0.2-0.5-0.5-0.8-1-1l-23.7-8c-1.4-0.5-1.4-2.5,0-2.9l23.7-8c0.5-0.2,0.8-0.5,1-1l8-23.7c0.5-1.4,2.5-1.4,2.9,0l8,23.7 c0.2,0.5,0.5,0.8,1,1l23.7,8c1.4,0.5,1.4,2.5,0,2.9l-23.7,8C60,59.6,59.6,60,59.5,60.5z" fill="#ffffff" transform="scale(0.3450418123397889) translate(-50 -50)"></path></g></g><g transform="translate(798.4878529331033 0)">
<g style="animation-delay:-36.428430231111655s;animation-duration:50s" class="ld ld-fall"><path d="M59.5,60.5l-8,23.7c-0.5,1.4-2.5,1.4-2.9,0 l-8-23.7c-0.2-0.5-0.5-0.8-1-1l-23.7-8c-1.4-0.5-1.4-2.5,0-2.9l23.7-8c0.5-0.2,0.8-0.5,1-1l8-23.7c0.5-1.4,2.5-1.4,2.9,0l8,23.7 c0.2,0.5,0.5,0.8,1,1l23.7,8c1.4,0.5,1.4,2.5,0,2.9l-23.7,8C60,59.6,59.6,60,59.5,60.5z" fill="#ffffff" transform="scale(0.35401249416505154) translate(-50 -50)"></path></g></g><g transform="translate(267.54984111703266 0)">
<g style="animation-delay:-51.6541560569012s;animation-duration:100s" class="ld ld-fall"><path d="M59.5,60.5l-8,23.7c-0.5,1.4-2.5,1.4-2.9,0 l-8-23.7c-0.2-0.5-0.5-0.8-1-1l-23.7-8c-1.4-0.5-1.4-2.5,0-2.9l23.7-8c0.5-0.2,0.8-0.5,1-1l8-23.7c0.5-1.4,2.5-1.4,2.9,0l8,23.7 c0.2,0.5,0.5,0.8,1,1l23.7,8c1.4,0.5,1.4,2.5,0,2.9l-23.7,8C60,59.6,59.6,60,59.5,60.5z" fill="#aaaaaa" transform="scale(0.23822385102691698) translate(-50 -50)"></path></g></g><g transform="translate(408.3244157104118 0)">
<g style="animation-delay:-58.535020370621105s;animation-duration:100s" class="ld ld-fall"><path d="M59.5,60.5l-8,23.7c-0.5,1.4-2.5,1.4-2.9,0 l-8-23.7c-0.2-0.5-0.5-0.8-1-1l-23.7-8c-1.4-0.5-1.4-2.5,0-2.9l23.7-8c0.5-0.2,0.8-0.5,1-1l8-23.7c0.5-1.4,2.5-1.4,2.9,0l8,23.7 c0.2,0.5,0.5,0.8,1,1l23.7,8c1.4,0.5,1.4,2.5,0,2.9l-23.7,8C60,59.6,59.6,60,59.5,60.5z" fill="#aaaaaa" transform="scale(0.34532418387027664) translate(-50 -50)"></path></g></g><g transform="translate(1438.6040186691912 0)">
<g style="animation-delay:-23.66237838113005s;animation-duration:50s" class="ld ld-fall"><path d="M59.5,60.5l-8,23.7c-0.5,1.4-2.5,1.4-2.9,0 l-8-23.7c-0.2-0.5-0.5-0.8-1-1l-23.7-8c-1.4-0.5-1.4-2.5,0-2.9l23.7-8c0.5-0.2,0.8-0.5,1-1l8-23.7c0.5-1.4,2.5-1.4,2.9,0l8,23.7 c0.2,0.5,0.5,0.8,1,1l23.7,8c1.4,0.5,1.4,2.5,0,2.9l-23.7,8C60,59.6,59.6,60,59.5,60.5z" fill="#dddddd" transform="scale(0.4851192330425315) translate(-50 -50)"></path></g></g><g transform="translate(6.400374628566334 0)">
<g style="animation-delay:-24.389109201767965s;animation-duration:50s" class="ld ld-fall"><path d="M59.5,60.5l-8,23.7c-0.5,1.4-2.5,1.4-2.9,0 l-8-23.7c-0.2-0.5-0.5-0.8-1-1l-23.7-8c-1.4-0.5-1.4-2.5,0-2.9l23.7-8c0.5-0.2,0.8-0.5,1-1l8-23.7c0.5-1.4,2.5-1.4,2.9,0l8,23.7 c0.2,0.5,0.5,0.8,1,1l23.7,8c1.4,0.5,1.4,2.5,0,2.9l-23.7,8C60,59.6,59.6,60,59.5,60.5z" fill="#dddddd" transform="scale(0.21557166919833398) translate(-50 -50)"></path></g></g><g transform="translate(635.9197762716351 0)">
<g style="animation-delay:-9.153939961336006s;animation-duration:50s" class="ld ld-fall"><path d="M59.5,60.5l-8,23.7c-0.5,1.4-2.5,1.4-2.9,0 l-8-23.7c-0.2-0.5-0.5-0.8-1-1l-23.7-8c-1.4-0.5-1.4-2.5,0-2.9l23.7-8c0.5-0.2,0.8-0.5,1-1l8-23.7c0.5-1.4,2.5-1.4,2.9,0l8,23.7 c0.2,0.5,0.5,0.8,1,1l23.7,8c1.4,0.5,1.4,2.5,0,2.9l-23.7,8C60,59.6,59.6,60,59.5,60.5z" fill="#ffffff" transform="scale(0.2275367473553241) translate(-50 -50)"></path></g></g><g transform="translate(1205.2259278568858 0)">
<g style="animation-delay:-40.42052365403344s;animation-duration:100s" class="ld ld-fall"><path d="M59.5,60.5l-8,23.7c-0.5,1.4-2.5,1.4-2.9,0 l-8-23.7c-0.2-0.5-0.5-0.8-1-1l-23.7-8c-1.4-0.5-1.4-2.5,0-2.9l23.7-8c0.5-0.2,0.8-0.5,1-1l8-23.7c0.5-1.4,2.5-1.4,2.9,0l8,23.7 c0.2,0.5,0.5,0.8,1,1l23.7,8c1.4,0.5,1.4,2.5,0,2.9l-23.7,8C60,59.6,59.6,60,59.5,60.5z" fill="#ffffff" transform="scale(0.4678040507363034) translate(-50 -50)"></path></g></g><g transform="translate(1471.1966915759851 0)">
<g style="animation-delay:-81.16992092372995s;animation-duration:100s" class="ld ld-fall"><path d="M59.5,60.5l-8,23.7c-0.5,1.4-2.5,1.4-2.9,0 l-8-23.7c-0.2-0.5-0.5-0.8-1-1l-23.7-8c-1.4-0.5-1.4-2.5,0-2.9l23.7-8c0.5-0.2,0.8-0.5,1-1l8-23.7c0.5-1.4,2.5-1.4,2.9,0l8,23.7 c0.2,0.5,0.5,0.8,1,1l23.7,8c1.4,0.5,1.4,2.5,0,2.9l-23.7,8C60,59.6,59.6,60,59.5,60.5z" fill="#dddddd" transform="scale(0.3862962223883707) translate(-50 -50)"></path></g></g><g transform="translate(1447.4540255758984 0)">
<g style="animation-delay:-21.97965455170473s;animation-duration:100s" class="ld ld-fall"><path d="M59.5,60.5l-8,23.7c-0.5,1.4-2.5,1.4-2.9,0 l-8-23.7c-0.2-0.5-0.5-0.8-1-1l-23.7-8c-1.4-0.5-1.4-2.5,0-2.9l23.7-8c0.5-0.2,0.8-0.5,1-1l8-23.7c0.5-1.4,2.5-1.4,2.9,0l8,23.7 c0.2,0.5,0.5,0.8,1,1l23.7,8c1.4,0.5,1.4,2.5,0,2.9l-23.7,8C60,59.6,59.6,60,59.5,60.5z" fill="#aaaaaa" transform="scale(0.4783829913485027) translate(-50 -50)"></path></g></g></g><g></g></g><!-- [ldio] generated by https://loading.io --></svg>