<svg xmlns="http://www.w3.org/2000/svg" viewBox="0 0 1536 791" preserveAspectRatio="xMidYMid" width="1536" height="791" style="shape-rendering: auto; display: block; background: rgb(57, 102, 68);" xmlns:xlink="http://www.w3.org/1999/xlink"><g><style type="text/css">
  @keyframes ld-fall {
    0%    { transform: translate(0,0px) rotate3d(1,1,1,0deg); }
    16.6% { transform: translate(0,133.83333333333334px) rotate3d(1,1,1,180deg); }
    33.3% { transform: translate(0,267.6666666666667px) rotate3d(1,1,1,360deg); }
    50.0% { transform: translate(0,401.5px) rotate3d(1,1,1,540deg); }
    66.6% { transform: translate(0,535.3333333333334px) rotate3d(1,1,1,720deg); }
    83.3% { transform: translate(0,669.1666666666666px) rotate3d(1,1,1,900deg); }
    100%  { transform: translate(0,803px) rotate3d(1,1,1,1080deg) ; }
  }
  .ld.ld-fall {
    animation: ld-fall 100s linear infinite;
  }
  .ld.ld-fall2 {
    animation: ld-fall 100s linear infinite;
    animation-fill-mode: forwards;
  }
</style>
  <g transform="translate(0 651.5473326514016)"><g transform="translate(1374.2154367847188 0)">
<g style="animation-delay:-97.78763130536386s;animation-duration:100s" class="ld ld-fall2"><path d="M59.5,60.5l-8,23.7c-0.5,1.4-2.5,1.4-2.9,0 l-8-23.7c-0.2-0.5-0.5-0.8-1-1l-23.7-8c-1.4-0.5-1.4-2.5,0-2.9l23.7-8c0.5-0.2,0.8-0.5,1-1l8-23.7c0.5-1.4,2.5-1.4,2.9,0l8,23.7 c0.2,0.5,0.5,0.8,1,1l23.7,8c1.4,0.5,1.4,2.5,0,2.9l-23.7,8C60,59.6,59.6,60,59.5,60.5z" fill="#f48924" transform="scale(0.4419186930218718) translate(-50 -50)"></path></g></g><g transform="translate(635.2086025025147 0)">
<g style="animation-delay:-17.205917355546813s;animation-duration:100s" class="ld ld-fall2"><path d="M59.5,60.5l-8,23.7c-0.5,1.4-2.5,1.4-2.9,0 l-8-23.7c-0.2-0.5-0.5-0.8-1-1l-23.7-8c-1.4-0.5-1.4-2.5,0-2.9l23.7-8c0.5-0.2,0.8-0.5,1-1l8-23.7c0.5-1.4,2.5-1.4,2.9,0l8,23.7 c0.2,0.5,0.5,0.8,1,1l23.7,8c1.4,0.5,1.4,2.5,0,2.9l-23.7,8C60,59.6,59.6,60,59.5,60.5z" fill="#52565e" transform="scale(0.4570543143886857) translate(-50 -50)"></path></g></g><g transform="translate(98.27040437310876 0)">
<g style="animation-delay:-40.2264652934719s;animation-duration:50s" class="ld ld-fall2"><path d="M59.5,60.5l-8,23.7c-0.5,1.4-2.5,1.4-2.9,0 l-8-23.7c-0.2-0.5-0.5-0.8-1-1l-23.7-8c-1.4-0.5-1.4-2.5,0-2.9l23.7-8c0.5-0.2,0.8-0.5,1-1l8-23.7c0.5-1.4,2.5-1.4,2.9,0l8,23.7 c0.2,0.5,0.5,0.8,1,1l23.7,8c1.4,0.5,1.4,2.5,0,2.9l-23.7,8C60,59.6,59.6,60,59.5,60.5z" fill="#f85a40" transform="scale(0.4794542675530819) translate(-50 -50)"></path></g></g><g transform="translate(1375.667783690396 0)">
<g style="animation-delay:-21.3435324996417s;animation-duration:50s" class="ld ld-fall2"><path d="M59.5,60.5l-8,23.7c-0.5,1.4-2.5,1.4-2.9,0 l-8-23.7c-0.2-0.5-0.5-0.8-1-1l-23.7-8c-1.4-0.5-1.4-2.5,0-2.9l23.7-8c0.5-0.2,0.8-0.5,1-1l8-23.7c0.5-1.4,2.5-1.4,2.9,0l8,23.7 c0.2,0.5,0.5,0.8,1,1l23.7,8c1.4,0.5,1.4,2.5,0,2.9l-23.7,8C60,59.6,59.6,60,59.5,60.5z" fill="#caccd1" transform="scale(0.21774907590545192) translate(-50 -50)"></path></g></g><g transform="translate(731.6373428737935 0)">
<g style="animation-delay:-77.76464087009086s;animation-duration:100s" class="ld ld-fall2"><path d="M59.5,60.5l-8,23.7c-0.5,1.4-2.5,1.4-2.9,0 l-8-23.7c-0.2-0.5-0.5-0.8-1-1l-23.7-8c-1.4-0.5-1.4-2.5,0-2.9l23.7-8c0.5-0.2,0.8-0.5,1-1l8-23.7c0.5-1.4,2.5-1.4,2.9,0l8,23.7 c0.2,0.5,0.5,0.8,1,1l23.7,8c1.4,0.5,1.4,2.5,0,2.9l-23.7,8C60,59.6,59.6,60,59.5,60.5z" fill="#f3f4f7" transform="scale(0.24027150716155937) translate(-50 -50)"></path></g></g><g transform="translate(1452.7142381607068 0)">
<g style="animation-delay:-24.429643103644377s;animation-duration:50s" class="ld ld-fall2"><path d="M59.5,60.5l-8,23.7c-0.5,1.4-2.5,1.4-2.9,0 l-8-23.7c-0.2-0.5-0.5-0.8-1-1l-23.7-8c-1.4-0.5-1.4-2.5,0-2.9l23.7-8c0.5-0.2,0.8-0.5,1-1l8-23.7c0.5-1.4,2.5-1.4,2.9,0l8,23.7 c0.2,0.5,0.5,0.8,1,1l23.7,8c1.4,0.5,1.4,2.5,0,2.9l-23.7,8C60,59.6,59.6,60,59.5,60.5z" fill="#caccd1" transform="scale(0.40994377782923236) translate(-50 -50)"></path></g></g><g transform="translate(329.9173531265779 0)">
<g style="animation-delay:-44.28800859809206s;animation-duration:100s" class="ld ld-fall2"><path d="M59.5,60.5l-8,23.7c-0.5,1.4-2.5,1.4-2.9,0 l-8-23.7c-0.2-0.5-0.5-0.8-1-1l-23.7-8c-1.4-0.5-1.4-2.5,0-2.9l23.7-8c0.5-0.2,0.8-0.5,1-1l8-23.7c0.5-1.4,2.5-1.4,2.9,0l8,23.7 c0.2,0.5,0.5,0.8,1,1l23.7,8c1.4,0.5,1.4,2.5,0,2.9l-23.7,8C60,59.6,59.6,60,59.5,60.5z" fill="#f3f4f7" transform="scale(0.29373780835864427) translate(-50 -50)"></path></g></g><g transform="translate(524.0896441967495 0)">
<g style="animation-delay:-9.488463691782796s;animation-duration:50s" class="ld ld-fall2"><path d="M59.5,60.5l-8,23.7c-0.5,1.4-2.5,1.4-2.9,0 l-8-23.7c-0.2-0.5-0.5-0.8-1-1l-23.7-8c-1.4-0.5-1.4-2.5,0-2.9l23.7-8c0.5-0.2,0.8-0.5,1-1l8-23.7c0.5-1.4,2.5-1.4,2.9,0l8,23.7 c0.2,0.5,0.5,0.8,1,1l23.7,8c1.4,0.5,1.4,2.5,0,2.9l-23.7,8C60,59.6,59.6,60,59.5,60.5z" fill="#ffc845" transform="scale(0.2670560797108075) translate(-50 -50)"></path></g></g><g transform="translate(668.0924233118293 0)">
<g style="animation-delay:-30.875369041215457s;animation-duration:100s" class="ld ld-fall2"><path d="M59.5,60.5l-8,23.7c-0.5,1.4-2.5,1.4-2.9,0 l-8-23.7c-0.2-0.5-0.5-0.8-1-1l-23.7-8c-1.4-0.5-1.4-2.5,0-2.9l23.7-8c0.5-0.2,0.8-0.5,1-1l8-23.7c0.5-1.4,2.5-1.4,2.9,0l8,23.7 c0.2,0.5,0.5,0.8,1,1l23.7,8c1.4,0.5,1.4,2.5,0,2.9l-23.7,8C60,59.6,59.6,60,59.5,60.5z" fill="#f85a40" transform="scale(0.2788577266952348) translate(-50 -50)"></path></g></g><g transform="translate(1506.5141269403 0)">
<g style="animation-delay:-56.75294695616768s;animation-duration:100s" class="ld ld-fall2"><path d="M59.5,60.5l-8,23.7c-0.5,1.4-2.5,1.4-2.9,0 l-8-23.7c-0.2-0.5-0.5-0.8-1-1l-23.7-8c-1.4-0.5-1.4-2.5,0-2.9l23.7-8c0.5-0.2,0.8-0.5,1-1l8-23.7c0.5-1.4,2.5-1.4,2.9,0l8,23.7 c0.2,0.5,0.5,0.8,1,1l23.7,8c1.4,0.5,1.4,2.5,0,2.9l-23.7,8C60,59.6,59.6,60,59.5,60.5z" fill="#f48924" transform="scale(0.42768444912085346) translate(-50 -50)"></path></g></g><g transform="translate(498.4626635514098 0)">
<g style="animation-delay:-33.56997191518172s;animation-duration:50s" class="ld ld-fall2"><path d="M59.5,60.5l-8,23.7c-0.5,1.4-2.5,1.4-2.9,0 l-8-23.7c-0.2-0.5-0.5-0.8-1-1l-23.7-8c-1.4-0.5-1.4-2.5,0-2.9l23.7-8c0.5-0.2,0.8-0.5,1-1l8-23.7c0.5-1.4,2.5-1.4,2.9,0l8,23.7 c0.2,0.5,0.5,0.8,1,1l23.7,8c1.4,0.5,1.4,2.5,0,2.9l-23.7,8C60,59.6,59.6,60,59.5,60.5z" fill="#ffc845" transform="scale(0.39793357107969907) translate(-50 -50)"></path></g></g><g transform="translate(777.7004929937468 0)">
<g style="animation-delay:-43.903836643267155s;animation-duration:50s" class="ld ld-fall2"><path d="M59.5,60.5l-8,23.7c-0.5,1.4-2.5,1.4-2.9,0 l-8-23.7c-0.2-0.5-0.5-0.8-1-1l-23.7-8c-1.4-0.5-1.4-2.5,0-2.9l23.7-8c0.5-0.2,0.8-0.5,1-1l8-23.7c0.5-1.4,2.5-1.4,2.9,0l8,23.7 c0.2,0.5,0.5,0.8,1,1l23.7,8c1.4,0.5,1.4,2.5,0,2.9l-23.7,8C60,59.6,59.6,60,59.5,60.5z" fill="#037ef3" transform="scale(0.2556390325751514) translate(-50 -50)"></path></g></g><g transform="translate(1112.9676293967304 0)">
<g style="animation-delay:-32.34977623216106s;animation-duration:50s" class="ld ld-fall2"><path d="M59.5,60.5l-8,23.7c-0.5,1.4-2.5,1.4-2.9,0 l-8-23.7c-0.2-0.5-0.5-0.8-1-1l-23.7-8c-1.4-0.5-1.4-2.5,0-2.9l23.7-8c0.5-0.2,0.8-0.5,1-1l8-23.7c0.5-1.4,2.5-1.4,2.9,0l8,23.7 c0.2,0.5,0.5,0.8,1,1l23.7,8c1.4,0.5,1.4,2.5,0,2.9l-23.7,8C60,59.6,59.6,60,59.5,60.5z" fill="#f48924" transform="scale(0.2787178372601637) translate(-50 -50)"></path></g></g><g transform="translate(322.81740280687814 0)">
<g style="animation-delay:-37.18982398882144s;animation-duration:50s" class="ld ld-fall2"><path d="M59.5,60.5l-8,23.7c-0.5,1.4-2.5,1.4-2.9,0 l-8-23.7c-0.2-0.5-0.5-0.8-1-1l-23.7-8c-1.4-0.5-1.4-2.5,0-2.9l23.7-8c0.5-0.2,0.8-0.5,1-1l8-23.7c0.5-1.4,2.5-1.4,2.9,0l8,23.7 c0.2,0.5,0.5,0.8,1,1l23.7,8c1.4,0.5,1.4,2.5,0,2.9l-23.7,8C60,59.6,59.6,60,59.5,60.5z" fill="#f48924" transform="scale(0.43638123895969727) translate(-50 -50)"></path></g></g><g transform="translate(143.38059588989302 0)">
<g style="animation-delay:-24.22136136366506s;animation-duration:50s" class="ld ld-fall2"><path d="M59.5,60.5l-8,23.7c-0.5,1.4-2.5,1.4-2.9,0 l-8-23.7c-0.2-0.5-0.5-0.8-1-1l-23.7-8c-1.4-0.5-1.4-2.5,0-2.9l23.7-8c0.5-0.2,0.8-0.5,1-1l8-23.7c0.5-1.4,2.5-1.4,2.9,0l8,23.7 c0.2,0.5,0.5,0.8,1,1l23.7,8c1.4,0.5,1.4,2.5,0,2.9l-23.7,8C60,59.6,59.6,60,59.5,60.5z" fill="#52565e" transform="scale(0.28842993485361607) translate(-50 -50)"></path></g></g><g transform="translate(370.2721388379209 0)">
<g style="animation-delay:-17.356464165970642s;animation-duration:50s" class="ld ld-fall2"><path d="M59.5,60.5l-8,23.7c-0.5,1.4-2.5,1.4-2.9,0 l-8-23.7c-0.2-0.5-0.5-0.8-1-1l-23.7-8c-1.4-0.5-1.4-2.5,0-2.9l23.7-8c0.5-0.2,0.8-0.5,1-1l8-23.7c0.5-1.4,2.5-1.4,2.9,0l8,23.7 c0.2,0.5,0.5,0.8,1,1l23.7,8c1.4,0.5,1.4,2.5,0,2.9l-23.7,8C60,59.6,59.6,60,59.5,60.5z" fill="#037ef3" transform="scale(0.2352794880543177) translate(-50 -50)"></path></g></g><g transform="translate(444.6180242588496 0)">
<g style="animation-delay:-20.351182197969322s;animation-duration:50s" class="ld ld-fall2"><path d="M59.5,60.5l-8,23.7c-0.5,1.4-2.5,1.4-2.9,0 l-8-23.7c-0.2-0.5-0.5-0.8-1-1l-23.7-8c-1.4-0.5-1.4-2.5,0-2.9l23.7-8c0.5-0.2,0.8-0.5,1-1l8-23.7c0.5-1.4,2.5-1.4,2.9,0l8,23.7 c0.2,0.5,0.5,0.8,1,1l23.7,8c1.4,0.5,1.4,2.5,0,2.9l-23.7,8C60,59.6,59.6,60,59.5,60.5z" fill="#52565e" transform="scale(0.29405430284947726) translate(-50 -50)"></path></g></g><g transform="translate(182.45918301376105 0)">
<g style="animation-delay:-49.642369935393795s;animation-duration:50s" class="ld ld-fall2"><path d="M59.5,60.5l-8,23.7c-0.5,1.4-2.5,1.4-2.9,0 l-8-23.7c-0.2-0.5-0.5-0.8-1-1l-23.7-8c-1.4-0.5-1.4-2.5,0-2.9l23.7-8c0.5-0.2,0.8-0.5,1-1l8-23.7c0.5-1.4,2.5-1.4,2.9,0l8,23.7 c0.2,0.5,0.5,0.8,1,1l23.7,8c1.4,0.5,1.4,2.5,0,2.9l-23.7,8C60,59.6,59.6,60,59.5,60.5z" fill="#f48924" transform="scale(0.4712230362044809) translate(-50 -50)"></path></g></g><g transform="translate(1141.8841020150244 0)">
<g style="animation-delay:-41.77917678543575s;animation-duration:50s" class="ld ld-fall2"><path d="M59.5,60.5l-8,23.7c-0.5,1.4-2.5,1.4-2.9,0 l-8-23.7c-0.2-0.5-0.5-0.8-1-1l-23.7-8c-1.4-0.5-1.4-2.5,0-2.9l23.7-8c0.5-0.2,0.8-0.5,1-1l8-23.7c0.5-1.4,2.5-1.4,2.9,0l8,23.7 c0.2,0.5,0.5,0.8,1,1l23.7,8c1.4,0.5,1.4,2.5,0,2.9l-23.7,8C60,59.6,59.6,60,59.5,60.5z" fill="#ffc845" transform="scale(0.30945571990563575) translate(-50 -50)"></path></g></g><g transform="translate(1489.18249179704 0)">
<g style="animation-delay:-32.125915680302974s;animation-duration:100s" class="ld ld-fall2"><path d="M59.5,60.5l-8,23.7c-0.5,1.4-2.5,1.4-2.9,0 l-8-23.7c-0.2-0.5-0.5-0.8-1-1l-23.7-8c-1.4-0.5-1.4-2.5,0-2.9l23.7-8c0.5-0.2,0.8-0.5,1-1l8-23.7c0.5-1.4,2.5-1.4,2.9,0l8,23.7 c0.2,0.5,0.5,0.8,1,1l23.7,8c1.4,0.5,1.4,2.5,0,2.9l-23.7,8C60,59.6,59.6,60,59.5,60.5z" fill="#f48924" transform="scale(0.33633834527735296) translate(-50 -50)"></path></g></g><g transform="translate(700.049130340828 0)">
<g style="animation-delay:-23.925231909972247s;animation-duration:50s" class="ld ld-fall2"><path d="M59.5,60.5l-8,23.7c-0.5,1.4-2.5,1.4-2.9,0 l-8-23.7c-0.2-0.5-0.5-0.8-1-1l-23.7-8c-1.4-0.5-1.4-2.5,0-2.9l23.7-8c0.5-0.2,0.8-0.5,1-1l8-23.7c0.5-1.4,2.5-1.4,2.9,0l8,23.7 c0.2,0.5,0.5,0.8,1,1l23.7,8c1.4,0.5,1.4,2.5,0,2.9l-23.7,8C60,59.6,59.6,60,59.5,60.5z" fill="#f48924" transform="scale(0.3388545630154601) translate(-50 -50)"></path></g></g><g transform="translate(679.5036143961357 0)">
<g style="animation-delay:-22.42874556980925s;animation-duration:50s" class="ld ld-fall2"><path d="M59.5,60.5l-8,23.7c-0.5,1.4-2.5,1.4-2.9,0 l-8-23.7c-0.2-0.5-0.5-0.8-1-1l-23.7-8c-1.4-0.5-1.4-2.5,0-2.9l23.7-8c0.5-0.2,0.8-0.5,1-1l8-23.7c0.5-1.4,2.5-1.4,2.9,0l8,23.7 c0.2,0.5,0.5,0.8,1,1l23.7,8c1.4,0.5,1.4,2.5,0,2.9l-23.7,8C60,59.6,59.6,60,59.5,60.5z" fill="#f85a40" transform="scale(0.21469418756667147) translate(-50 -50)"></path></g></g><g transform="translate(104.96248079723172 0)">
<g style="animation-delay:-93.91668301105767s;animation-duration:100s" class="ld ld-fall2"><path d="M59.5,60.5l-8,23.7c-0.5,1.4-2.5,1.4-2.9,0 l-8-23.7c-0.2-0.5-0.5-0.8-1-1l-23.7-8c-1.4-0.5-1.4-2.5,0-2.9l23.7-8c0.5-0.2,0.8-0.5,1-1l8-23.7c0.5-1.4,2.5-1.4,2.9,0l8,23.7 c0.2,0.5,0.5,0.8,1,1l23.7,8c1.4,0.5,1.4,2.5,0,2.9l-23.7,8C60,59.6,59.6,60,59.5,60.5z" fill="#0a8ea0" transform="scale(0.3122108942758169) translate(-50 -50)"></path></g></g><g transform="translate(390.9975105690802 0)">
<g style="animation-delay:-76.29013336078128s;animation-duration:100s" class="ld ld-fall2"><path d="M59.5,60.5l-8,23.7c-0.5,1.4-2.5,1.4-2.9,0 l-8-23.7c-0.2-0.5-0.5-0.8-1-1l-23.7-8c-1.4-0.5-1.4-2.5,0-2.9l23.7-8c0.5-0.2,0.8-0.5,1-1l8-23.7c0.5-1.4,2.5-1.4,2.9,0l8,23.7 c0.2,0.5,0.5,0.8,1,1l23.7,8c1.4,0.5,1.4,2.5,0,2.9l-23.7,8C60,59.6,59.6,60,59.5,60.5z" fill="#caccd1" transform="scale(0.2577465056892527) translate(-50 -50)"></path></g></g><g transform="translate(859.3028806519121 0)">
<g style="animation-delay:-92.43280076383964s;animation-duration:100s" class="ld ld-fall2"><path d="M59.5,60.5l-8,23.7c-0.5,1.4-2.5,1.4-2.9,0 l-8-23.7c-0.2-0.5-0.5-0.8-1-1l-23.7-8c-1.4-0.5-1.4-2.5,0-2.9l23.7-8c0.5-0.2,0.8-0.5,1-1l8-23.7c0.5-1.4,2.5-1.4,2.9,0l8,23.7 c0.2,0.5,0.5,0.8,1,1l23.7,8c1.4,0.5,1.4,2.5,0,2.9l-23.7,8C60,59.6,59.6,60,59.5,60.5z" fill="#f85a40" transform="scale(0.4339213909919448) translate(-50 -50)"></path></g></g></g>
  <g transform="translate(0 -151.45266734859842)"><g transform="translate(1374.2154367847188 0)">
<g style="animation-delay:-97.78763130536386s;animation-duration:100s" class="ld ld-fall"><path d="M59.5,60.5l-8,23.7c-0.5,1.4-2.5,1.4-2.9,0 l-8-23.7c-0.2-0.5-0.5-0.8-1-1l-23.7-8c-1.4-0.5-1.4-2.5,0-2.9l23.7-8c0.5-0.2,0.8-0.5,1-1l8-23.7c0.5-1.4,2.5-1.4,2.9,0l8,23.7 c0.2,0.5,0.5,0.8,1,1l23.7,8c1.4,0.5,1.4,2.5,0,2.9l-23.7,8C60,59.6,59.6,60,59.5,60.5z" fill="#f48924" transform="scale(0.4419186930218718) translate(-50 -50)"></path></g></g><g transform="translate(635.2086025025147 0)">
<g style="animation-delay:-17.205917355546813s;animation-duration:100s" class="ld ld-fall"><path d="M59.5,60.5l-8,23.7c-0.5,1.4-2.5,1.4-2.9,0 l-8-23.7c-0.2-0.5-0.5-0.8-1-1l-23.7-8c-1.4-0.5-1.4-2.5,0-2.9l23.7-8c0.5-0.2,0.8-0.5,1-1l8-23.7c0.5-1.4,2.5-1.4,2.9,0l8,23.7 c0.2,0.5,0.5,0.8,1,1l23.7,8c1.4,0.5,1.4,2.5,0,2.9l-23.7,8C60,59.6,59.6,60,59.5,60.5z" fill="#52565e" transform="scale(0.4570543143886857) translate(-50 -50)"></path></g></g><g transform="translate(98.27040437310876 0)">
<g style="animation-delay:-40.2264652934719s;animation-duration:50s" class="ld ld-fall"><path d="M59.5,60.5l-8,23.7c-0.5,1.4-2.5,1.4-2.9,0 l-8-23.7c-0.2-0.5-0.5-0.8-1-1l-23.7-8c-1.4-0.5-1.4-2.5,0-2.9l23.7-8c0.5-0.2,0.8-0.5,1-1l8-23.7c0.5-1.4,2.5-1.4,2.9,0l8,23.7 c0.2,0.5,0.5,0.8,1,1l23.7,8c1.4,0.5,1.4,2.5,0,2.9l-23.7,8C60,59.6,59.6,60,59.5,60.5z" fill="#f85a40" transform="scale(0.4794542675530819) translate(-50 -50)"></path></g></g><g transform="translate(1375.667783690396 0)">
<g style="animation-delay:-21.3435324996417s;animation-duration:50s" class="ld ld-fall"><path d="M59.5,60.5l-8,23.7c-0.5,1.4-2.5,1.4-2.9,0 l-8-23.7c-0.2-0.5-0.5-0.8-1-1l-23.7-8c-1.4-0.5-1.4-2.5,0-2.9l23.7-8c0.5-0.2,0.8-0.5,1-1l8-23.7c0.5-1.4,2.5-1.4,2.9,0l8,23.7 c0.2,0.5,0.5,0.8,1,1l23.7,8c1.4,0.5,1.4,2.5,0,2.9l-23.7,8C60,59.6,59.6,60,59.5,60.5z" fill="#caccd1" transform="scale(0.21774907590545192) translate(-50 -50)"></path></g></g><g transform="translate(731.6373428737935 0)">
<g style="animation-delay:-77.76464087009086s;animation-duration:100s" class="ld ld-fall"><path d="M59.5,60.5l-8,23.7c-0.5,1.4-2.5,1.4-2.9,0 l-8-23.7c-0.2-0.5-0.5-0.8-1-1l-23.7-8c-1.4-0.5-1.4-2.5,0-2.9l23.7-8c0.5-0.2,0.8-0.5,1-1l8-23.7c0.5-1.4,2.5-1.4,2.9,0l8,23.7 c0.2,0.5,0.5,0.8,1,1l23.7,8c1.4,0.5,1.4,2.5,0,2.9l-23.7,8C60,59.6,59.6,60,59.5,60.5z" fill="#f3f4f7" transform="scale(0.24027150716155937) translate(-50 -50)"></path></g></g><g transform="translate(1452.7142381607068 0)">
<g style="animation-delay:-24.429643103644377s;animation-duration:50s" class="ld ld-fall"><path d="M59.5,60.5l-8,23.7c-0.5,1.4-2.5,1.4-2.9,0 l-8-23.7c-0.2-0.5-0.5-0.8-1-1l-23.7-8c-1.4-0.5-1.4-2.5,0-2.9l23.7-8c0.5-0.2,0.8-0.5,1-1l8-23.7c0.5-1.4,2.5-1.4,2.9,0l8,23.7 c0.2,0.5,0.5,0.8,1,1l23.7,8c1.4,0.5,1.4,2.5,0,2.9l-23.7,8C60,59.6,59.6,60,59.5,60.5z" fill="#caccd1" transform="scale(0.40994377782923236) translate(-50 -50)"></path></g></g><g transform="translate(329.9173531265779 0)">
<g style="animation-delay:-44.28800859809206s;animation-duration:100s" class="ld ld-fall"><path d="M59.5,60.5l-8,23.7c-0.5,1.4-2.5,1.4-2.9,0 l-8-23.7c-0.2-0.5-0.5-0.8-1-1l-23.7-8c-1.4-0.5-1.4-2.5,0-2.9l23.7-8c0.5-0.2,0.8-0.5,1-1l8-23.7c0.5-1.4,2.5-1.4,2.9,0l8,23.7 c0.2,0.5,0.5,0.8,1,1l23.7,8c1.4,0.5,1.4,2.5,0,2.9l-23.7,8C60,59.6,59.6,60,59.5,60.5z" fill="#f3f4f7" transform="scale(0.29373780835864427) translate(-50 -50)"></path></g></g><g transform="translate(524.0896441967495 0)">
<g style="animation-delay:-9.488463691782796s;animation-duration:50s" class="ld ld-fall"><path d="M59.5,60.5l-8,23.7c-0.5,1.4-2.5,1.4-2.9,0 l-8-23.7c-0.2-0.5-0.5-0.8-1-1l-23.7-8c-1.4-0.5-1.4-2.5,0-2.9l23.7-8c0.5-0.2,0.8-0.5,1-1l8-23.7c0.5-1.4,2.5-1.4,2.9,0l8,23.7 c0.2,0.5,0.5,0.8,1,1l23.7,8c1.4,0.5,1.4,2.5,0,2.9l-23.7,8C60,59.6,59.6,60,59.5,60.5z" fill="#ffc845" transform="scale(0.2670560797108075) translate(-50 -50)"></path></g></g><g transform="translate(668.0924233118293 0)">
<g style="animation-delay:-30.875369041215457s;animation-duration:100s" class="ld ld-fall"><path d="M59.5,60.5l-8,23.7c-0.5,1.4-2.5,1.4-2.9,0 l-8-23.7c-0.2-0.5-0.5-0.8-1-1l-23.7-8c-1.4-0.5-1.4-2.5,0-2.9l23.7-8c0.5-0.2,0.8-0.5,1-1l8-23.7c0.5-1.4,2.5-1.4,2.9,0l8,23.7 c0.2,0.5,0.5,0.8,1,1l23.7,8c1.4,0.5,1.4,2.5,0,2.9l-23.7,8C60,59.6,59.6,60,59.5,60.5z" fill="#f85a40" transform="scale(0.2788577266952348) translate(-50 -50)"></path></g></g><g transform="translate(1506.5141269403 0)">
<g style="animation-delay:-56.75294695616768s;animation-duration:100s" class="ld ld-fall"><path d="M59.5,60.5l-8,23.7c-0.5,1.4-2.5,1.4-2.9,0 l-8-23.7c-0.2-0.5-0.5-0.8-1-1l-23.7-8c-1.4-0.5-1.4-2.5,0-2.9l23.7-8c0.5-0.2,0.8-0.5,1-1l8-23.7c0.5-1.4,2.5-1.4,2.9,0l8,23.7 c0.2,0.5,0.5,0.8,1,1l23.7,8c1.4,0.5,1.4,2.5,0,2.9l-23.7,8C60,59.6,59.6,60,59.5,60.5z" fill="#f48924" transform="scale(0.42768444912085346) translate(-50 -50)"></path></g></g><g transform="translate(498.4626635514098 0)">
<g style="animation-delay:-33.56997191518172s;animation-duration:50s" class="ld ld-fall"><path d="M59.5,60.5l-8,23.7c-0.5,1.4-2.5,1.4-2.9,0 l-8-23.7c-0.2-0.5-0.5-0.8-1-1l-23.7-8c-1.4-0.5-1.4-2.5,0-2.9l23.7-8c0.5-0.2,0.8-0.5,1-1l8-23.7c0.5-1.4,2.5-1.4,2.9,0l8,23.7 c0.2,0.5,0.5,0.8,1,1l23.7,8c1.4,0.5,1.4,2.5,0,2.9l-23.7,8C60,59.6,59.6,60,59.5,60.5z" fill="#ffc845" transform="scale(0.39793357107969907) translate(-50 -50)"></path></g></g><g transform="translate(777.7004929937468 0)">
<g style="animation-delay:-43.903836643267155s;animation-duration:50s" class="ld ld-fall"><path d="M59.5,60.5l-8,23.7c-0.5,1.4-2.5,1.4-2.9,0 l-8-23.7c-0.2-0.5-0.5-0.8-1-1l-23.7-8c-1.4-0.5-1.4-2.5,0-2.9l23.7-8c0.5-0.2,0.8-0.5,1-1l8-23.7c0.5-1.4,2.5-1.4,2.9,0l8,23.7 c0.2,0.5,0.5,0.8,1,1l23.7,8c1.4,0.5,1.4,2.5,0,2.9l-23.7,8C60,59.6,59.6,60,59.5,60.5z" fill="#037ef3" transform="scale(0.2556390325751514) translate(-50 -50)"></path></g></g><g transform="translate(1112.9676293967304 0)">
<g style="animation-delay:-32.34977623216106s;animation-duration:50s" class="ld ld-fall"><path d="M59.5,60.5l-8,23.7c-0.5,1.4-2.5,1.4-2.9,0 l-8-23.7c-0.2-0.5-0.5-0.8-1-1l-23.7-8c-1.4-0.5-1.4-2.5,0-2.9l23.7-8c0.5-0.2,0.8-0.5,1-1l8-23.7c0.5-1.4,2.5-1.4,2.9,0l8,23.7 c0.2,0.5,0.5,0.8,1,1l23.7,8c1.4,0.5,1.4,2.5,0,2.9l-23.7,8C60,59.6,59.6,60,59.5,60.5z" fill="#f48924" transform="scale(0.2787178372601637) translate(-50 -50)"></path></g></g><g transform="translate(322.81740280687814 0)">
<g style="animation-delay:-37.18982398882144s;animation-duration:50s" class="ld ld-fall"><path d="M59.5,60.5l-8,23.7c-0.5,1.4-2.5,1.4-2.9,0 l-8-23.7c-0.2-0.5-0.5-0.8-1-1l-23.7-8c-1.4-0.5-1.4-2.5,0-2.9l23.7-8c0.5-0.2,0.8-0.5,1-1l8-23.7c0.5-1.4,2.5-1.4,2.9,0l8,23.7 c0.2,0.5,0.5,0.8,1,1l23.7,8c1.4,0.5,1.4,2.5,0,2.9l-23.7,8C60,59.6,59.6,60,59.5,60.5z" fill="#f48924" transform="scale(0.43638123895969727) translate(-50 -50)"></path></g></g><g transform="translate(143.38059588989302 0)">
<g style="animation-delay:-24.22136136366506s;animation-duration:50s" class="ld ld-fall"><path d="M59.5,60.5l-8,23.7c-0.5,1.4-2.5,1.4-2.9,0 l-8-23.7c-0.2-0.5-0.5-0.8-1-1l-23.7-8c-1.4-0.5-1.4-2.5,0-2.9l23.7-8c0.5-0.2,0.8-0.5,1-1l8-23.7c0.5-1.4,2.5-1.4,2.9,0l8,23.7 c0.2,0.5,0.5,0.8,1,1l23.7,8c1.4,0.5,1.4,2.5,0,2.9l-23.7,8C60,59.6,59.6,60,59.5,60.5z" fill="#52565e" transform="scale(0.28842993485361607) translate(-50 -50)"></path></g></g><g transform="translate(370.2721388379209 0)">
<g style="animation-delay:-17.356464165970642s;animation-duration:50s" class="ld ld-fall"><path d="M59.5,60.5l-8,23.7c-0.5,1.4-2.5,1.4-2.9,0 l-8-23.7c-0.2-0.5-0.5-0.8-1-1l-23.7-8c-1.4-0.5-1.4-2.5,0-2.9l23.7-8c0.5-0.2,0.8-0.5,1-1l8-23.7c0.5-1.4,2.5-1.4,2.9,0l8,23.7 c0.2,0.5,0.5,0.8,1,1l23.7,8c1.4,0.5,1.4,2.5,0,2.9l-23.7,8C60,59.6,59.6,60,59.5,60.5z" fill="#037ef3" transform="scale(0.2352794880543177) translate(-50 -50)"></path></g></g><g transform="translate(444.6180242588496 0)">
<g style="animation-delay:-20.351182197969322s;animation-duration:50s" class="ld ld-fall"><path d="M59.5,60.5l-8,23.7c-0.5,1.4-2.5,1.4-2.9,0 l-8-23.7c-0.2-0.5-0.5-0.8-1-1l-23.7-8c-1.4-0.5-1.4-2.5,0-2.9l23.7-8c0.5-0.2,0.8-0.5,1-1l8-23.7c0.5-1.4,2.5-1.4,2.9,0l8,23.7 c0.2,0.5,0.5,0.8,1,1l23.7,8c1.4,0.5,1.4,2.5,0,2.9l-23.7,8C60,59.6,59.6,60,59.5,60.5z" fill="#52565e" transform="scale(0.29405430284947726) translate(-50 -50)"></path></g></g><g transform="translate(182.45918301376105 0)">
<g style="animation-delay:-49.642369935393795s;animation-duration:50s" class="ld ld-fall"><path d="M59.5,60.5l-8,23.7c-0.5,1.4-2.5,1.4-2.9,0 l-8-23.7c-0.2-0.5-0.5-0.8-1-1l-23.7-8c-1.4-0.5-1.4-2.5,0-2.9l23.7-8c0.5-0.2,0.8-0.5,1-1l8-23.7c0.5-1.4,2.5-1.4,2.9,0l8,23.7 c0.2,0.5,0.5,0.8,1,1l23.7,8c1.4,0.5,1.4,2.5,0,2.9l-23.7,8C60,59.6,59.6,60,59.5,60.5z" fill="#f48924" transform="scale(0.4712230362044809) translate(-50 -50)"></path></g></g><g transform="translate(1141.8841020150244 0)">
<g style="animation-delay:-41.77917678543575s;animation-duration:50s" class="ld ld-fall"><path d="M59.5,60.5l-8,23.7c-0.5,1.4-2.5,1.4-2.9,0 l-8-23.7c-0.2-0.5-0.5-0.8-1-1l-23.7-8c-1.4-0.5-1.4-2.5,0-2.9l23.7-8c0.5-0.2,0.8-0.5,1-1l8-23.7c0.5-1.4,2.5-1.4,2.9,0l8,23.7 c0.2,0.5,0.5,0.8,1,1l23.7,8c1.4,0.5,1.4,2.5,0,2.9l-23.7,8C60,59.6,59.6,60,59.5,60.5z" fill="#ffc845" transform="scale(0.30945571990563575) translate(-50 -50)"></path></g></g><g transform="translate(1489.18249179704 0)">
<g style="animation-delay:-32.125915680302974s;animation-duration:100s" class="ld ld-fall"><path d="M59.5,60.5l-8,23.7c-0.5,1.4-2.5,1.4-2.9,0 l-8-23.7c-0.2-0.5-0.5-0.8-1-1l-23.7-8c-1.4-0.5-1.4-2.5,0-2.9l23.7-8c0.5-0.2,0.8-0.5,1-1l8-23.7c0.5-1.4,2.5-1.4,2.9,0l8,23.7 c0.2,0.5,0.5,0.8,1,1l23.7,8c1.4,0.5,1.4,2.5,0,2.9l-23.7,8C60,59.6,59.6,60,59.5,60.5z" fill="#f48924" transform="scale(0.33633834527735296) translate(-50 -50)"></path></g></g><g transform="translate(700.049130340828 0)">
<g style="animation-delay:-23.925231909972247s;animation-duration:50s" class="ld ld-fall"><path d="M59.5,60.5l-8,23.7c-0.5,1.4-2.5,1.4-2.9,0 l-8-23.7c-0.2-0.5-0.5-0.8-1-1l-23.7-8c-1.4-0.5-1.4-2.5,0-2.9l23.7-8c0.5-0.2,0.8-0.5,1-1l8-23.7c0.5-1.4,2.5-1.4,2.9,0l8,23.7 c0.2,0.5,0.5,0.8,1,1l23.7,8c1.4,0.5,1.4,2.5,0,2.9l-23.7,8C60,59.6,59.6,60,59.5,60.5z" fill="#f48924" transform="scale(0.3388545630154601) translate(-50 -50)"></path></g></g><g transform="translate(679.5036143961357 0)">
<g style="animation-delay:-22.42874556980925s;animation-duration:50s" class="ld ld-fall"><path d="M59.5,60.5l-8,23.7c-0.5,1.4-2.5,1.4-2.9,0 l-8-23.7c-0.2-0.5-0.5-0.8-1-1l-23.7-8c-1.4-0.5-1.4-2.5,0-2.9l23.7-8c0.5-0.2,0.8-0.5,1-1l8-23.7c0.5-1.4,2.5-1.4,2.9,0l8,23.7 c0.2,0.5,0.5,0.8,1,1l23.7,8c1.4,0.5,1.4,2.5,0,2.9l-23.7,8C60,59.6,59.6,60,59.5,60.5z" fill="#f85a40" transform="scale(0.21469418756667147) translate(-50 -50)"></path></g></g><g transform="translate(104.96248079723172 0)">
<g style="animation-delay:-93.91668301105767s;animation-duration:100s" class="ld ld-fall"><path d="M59.5,60.5l-8,23.7c-0.5,1.4-2.5,1.4-2.9,0 l-8-23.7c-0.2-0.5-0.5-0.8-1-1l-23.7-8c-1.4-0.5-1.4-2.5,0-2.9l23.7-8c0.5-0.2,0.8-0.5,1-1l8-23.7c0.5-1.4,2.5-1.4,2.9,0l8,23.7 c0.2,0.5,0.5,0.8,1,1l23.7,8c1.4,0.5,1.4,2.5,0,2.9l-23.7,8C60,59.6,59.6,60,59.5,60.5z" fill="#0a8ea0" transform="scale(0.3122108942758169) translate(-50 -50)"></path></g></g><g transform="translate(390.9975105690802 0)">
<g style="animation-delay:-76.29013336078128s;animation-duration:100s" class="ld ld-fall"><path d="M59.5,60.5l-8,23.7c-0.5,1.4-2.5,1.4-2.9,0 l-8-23.7c-0.2-0.5-0.5-0.8-1-1l-23.7-8c-1.4-0.5-1.4-2.5,0-2.9l23.7-8c0.5-0.2,0.8-0.5,1-1l8-23.7c0.5-1.4,2.5-1.4,2.9,0l8,23.7 c0.2,0.5,0.5,0.8,1,1l23.7,8c1.4,0.5,1.4,2.5,0,2.9l-23.7,8C60,59.6,59.6,60,59.5,60.5z" fill="#caccd1" transform="scale(0.2577465056892527) translate(-50 -50)"></path></g></g><g transform="translate(859.3028806519121 0)">
<g style="animation-delay:-92.43280076383964s;animation-duration:100s" class="ld ld-fall"><path d="M59.5,60.5l-8,23.7c-0.5,1.4-2.5,1.4-2.9,0 l-8-23.7c-0.2-0.5-0.5-0.8-1-1l-23.7-8c-1.4-0.5-1.4-2.5,0-2.9l23.7-8c0.5-0.2,0.8-0.5,1-1l8-23.7c0.5-1.4,2.5-1.4,2.9,0l8,23.7 c0.2,0.5,0.5,0.8,1,1l23.7,8c1.4,0.5,1.4,2.5,0,2.9l-23.7,8C60,59.6,59.6,60,59.5,60.5z" fill="#f85a40" transform="scale(0.4339213909919448) translate(-50 -50)"></path></g></g></g><g></g></g><!-- [ldio] generated by https://loading.io --></svg>