<?xml version="1.0" encoding="iso-8859-1"?>
<!-- Uploaded to: SVG Repo, www.svgrepo.com, Generator: SVG Repo Mixer Tools -->
<svg height="800px" width="800px" version="1.1" id="Layer_1" xmlns="http://www.w3.org/2000/svg" xmlns:xlink="http://www.w3.org/1999/xlink" 
	 viewBox="0 0 511.999 511.999" xml:space="preserve">
<g>
	<path style="fill:#D9A382;" d="M362.923,183.02c71.361-31.61,72.029,64.41,12.787,74.831L362.923,183.02z"/>
	<path style="fill:#D9A382;" d="M149.075,183.02c-71.361-31.61-72.029,64.41-12.787,74.831L149.075,183.02z"/>
</g>
<path style="fill:#A07CD1;" d="M318.479,399.126L318.479,399.126l-61.911,59.069l-61.922-59.465l-1.135,0.394
	c-46.597,16.333-80.012,60.701-80.012,112.875l0,0h285.005l0,0C398.502,459.822,365.08,415.457,318.479,399.126z"/>
<path style="fill:#F0BB9A;" d="M290.208,392.964v-62.265h-68.418v62.266c-9.406,0.881-18.501,2.833-27.146,5.765
	c1.324,33.064,28.533,59.465,61.922,59.465c33.255,0,60.388-26.19,61.911-59.069C309.497,395.979,300.023,393.886,290.208,392.964z"
	/>
<path style="fill:#D9A382;" d="M221.791,385.056c10.99,2.584,22.441,3.956,34.208,3.956c11.767,0,23.219-1.372,34.209-3.956V330.7
	h-68.418V385.056z"/>
<path style="fill:#F0BB9A;" d="M255.999,28.357L255.999,28.357c-66.873,0-121.082,54.211-121.082,121.082v90.133
	c0,66.872,54.211,121.082,121.082,121.082l0,0c66.872,0,121.082-54.211,121.082-121.082v-90.133
	C377.081,82.567,322.872,28.357,255.999,28.357z"/>
<path style="fill:#2A2A33;" d="M255.999,248.081c-13.353,0-24.177,11.691-24.177,26.112c0,1.8,0.169,3.558,0.49,5.255l23.687,6.108
	l23.687-6.108c0.321-1.697,0.49-3.455,0.49-5.255C280.176,259.772,269.351,248.081,255.999,248.081z"/>
<path style="fill:#FF6465;" d="M255.999,300.305c11.685,0,21.434-8.955,23.687-20.858c-7.169-1.771-15.201-2.763-23.687-2.763
	c-8.485,0-16.518,0.992-23.687,2.763C234.565,291.351,244.314,300.305,255.999,300.305z"/>
<path style="fill:#C7CFE2;" d="M404.146,129.794C394.498,56.644,331.743,0,256,0S117.501,56.644,107.853,129.794H404.146z"/>
<path style="fill:#E1EAFF;" d="M273.014,0.968C267.429,0.331,261.753,0,256,0c-75.743,0-138.499,56.644-148.147,129.794h34.028
	C150.796,62.2,205.06,8.704,273.014,0.968z"/>
<polyline style="fill:#C7CFE2;" points="107.853,129.794 256.561,161.214 404.146,129.794 "/>
<path style="fill:#AFB6C7;" d="M369.374,115.335H142.625c-27.09,0-49.049,21.96-49.049,49.049l0,0
	c0,27.09,21.96,49.049,49.049,49.049h226.749c27.09,0,49.049-21.96,49.049-49.049l0,0
	C418.423,137.294,396.464,115.335,369.374,115.335z"/>
<path style="fill:#FF6465;" d="M142.625,185.076c-11.41,0-20.692-9.283-20.692-20.692c0-11.411,9.283-20.693,20.692-20.693h226.75
	c11.411,0,20.692,9.283,20.692,20.693c0,11.41-9.283,20.692-20.692,20.692H142.625z"/>
</svg>