<svg xmlns="http://www.w3.org/2000/svg" viewBox="0 0 1600 900" preserveAspectRatio="xMidYMid slice">
  <style>
    @keyframes twinkle{0%,100%{opacity:.25}50%{opacity:1}}
    @keyframes dash{to{stroke-dashoffset:-240}}
    @keyframes flA{0%{transform:translate(0,0);opacity:0}6%{opacity:.85}20%{transform:translate(40px,-30px)}29%{transform:translate(54px,-48px);opacity:0}30%{transform:translate(420px,160px);opacity:0}38%{opacity:.8}54%{transform:translate(452px,132px)}63%{opacity:0}64%{transform:translate(-280px,300px);opacity:0}72%{opacity:.9}92%{transform:translate(-318px,332px)}100%{opacity:0}}
    @keyframes flB{0%{transform:translate(0,0);opacity:0}7%{opacity:.8}22%{transform:translate(-38px,24px)}31%{transform:translate(-56px,40px);opacity:0}32%{transform:translate(-360px,-200px);opacity:0}40%{opacity:.85}56%{transform:translate(-392px,-228px)}65%{opacity:0}66%{transform:translate(260px,-300px);opacity:0}74%{opacity:.75}94%{transform:translate(300px,-340px)}100%{opacity:0}}
    @keyframes flC{0%{transform:translate(0,0);opacity:0}6%{opacity:.9}21%{transform:translate(46px,32px)}30%{transform:translate(64px,46px);opacity:0}31%{transform:translate(-300px,240px);opacity:0}39%{opacity:.8}55%{transform:translate(-336px,272px)}64%{opacity:0}65%{transform:translate(380px,-180px);opacity:0}73%{opacity:.9}93%{transform:translate(418px,-216px)}100%{opacity:0}}
    @keyframes flD{0%{transform:translate(0,0);opacity:0}8%{opacity:.75}23%{transform:translate(-30px,-40px)}32%{transform:translate(-44px,-58px);opacity:0}33%{transform:translate(340px,-220px);opacity:0}41%{opacity:.85}57%{transform:translate(372px,-250px)}66%{opacity:0}67%{transform:translate(-220px,320px);opacity:0}75%{opacity:.7}95%{transform:translate(-256px,356px)}100%{opacity:0}}
    @keyframes flE{0%{transform:translate(0,0);opacity:0}6%{opacity:.9}20%{transform:translate(34px,40px)}29%{transform:translate(48px,58px);opacity:0}30%{transform:translate(-380px,-160px);opacity:0}38%{opacity:.8}54%{transform:translate(-416px,-128px)}63%{opacity:0}64%{transform:translate(280px,260px);opacity:0}72%{opacity:.85}92%{transform:translate(316px,296px)}100%{opacity:0}}
    @keyframes flF{0%{transform:translate(0,0);opacity:0}7%{opacity:.7}22%{transform:translate(-46px,-24px)}31%{transform:translate(-64px,-40px);opacity:0}32%{transform:translate(300px,200px);opacity:0}40%{opacity:.85}56%{transform:translate(336px,228px)}65%{opacity:0}66%{transform:translate(-260px,-320px);opacity:0}74%{opacity:.75}94%{transform:translate(-300px,-356px)}100%{opacity:0}}
    @keyframes flG{0%{transform:translate(0,0);opacity:0}6%{opacity:.85}21%{transform:translate(52px,-20px)}30%{transform:translate(70px,-34px);opacity:0}31%{transform:translate(-340px,260px);opacity:0}39%{opacity:.8}55%{transform:translate(-376px,228px)}64%{opacity:0}65%{transform:translate(220px,-340px);opacity:0}73%{opacity:.9}93%{transform:translate(256px,-376px)}100%{opacity:0}}
    @keyframes flH{0%{transform:translate(0,0);opacity:0}8%{opacity:.8}23%{transform:translate(-32px,30px)}32%{transform:translate(-50px,44px);opacity:0}33%{transform:translate(360px,-200px);opacity:0}41%{opacity:.85}57%{transform:translate(396px,-232px)}66%{opacity:0}67%{transform:translate(-240px,300px);opacity:0}75%{opacity:.7}95%{transform:translate(-276px,336px)}100%{opacity:0}}
    .tw{animation:twinkle 4s ease-in-out infinite}
    .pulseEdge{stroke-dasharray:18 220;animation:dash 6s linear infinite}
    .fa{animation:flA ease-in-out infinite}.fb{animation:flB ease-in-out infinite}.fc{animation:flC ease-in-out infinite}.fd{animation:flD ease-in-out infinite}
    .fe{animation:flE ease-in-out infinite}.ff{animation:flF ease-in-out infinite}.fg{animation:flG ease-in-out infinite}.fh{animation:flH ease-in-out infinite}
  </style>
  <defs>
    <radialGradient id="bg" cx="50%" cy="44%" r="82%">
      <stop offset="0%" stop-color="#050411"/><stop offset="55%" stop-color="#010105"/><stop offset="100%" stop-color="#000000"/>
    </radialGradient>
    <radialGradient id="nebViolet" cx="50%" cy="50%" r="55%">
      <stop offset="0%" stop-color="#b47cff" stop-opacity=".44"/><stop offset="42%" stop-color="#2b1466" stop-opacity=".24"/><stop offset="100%" stop-color="#000" stop-opacity="0"/>
    </radialGradient>
    <radialGradient id="nebBlue" cx="50%" cy="50%" r="55%">
      <stop offset="0%" stop-color="#69b6ff" stop-opacity=".34"/><stop offset="40%" stop-color="#132d63" stop-opacity=".19"/><stop offset="100%" stop-color="#000" stop-opacity="0"/>
    </radialGradient>
    <radialGradient id="nebViolet2" cx="50%" cy="50%" r="55%">
      <stop offset="0%" stop-color="#8e6cff" stop-opacity=".26"/><stop offset="44%" stop-color="#241a55" stop-opacity=".13"/><stop offset="100%" stop-color="#000" stop-opacity="0"/>
    </radialGradient>
    <radialGradient id="flareG" cx="50%" cy="50%" r="50%">
      <stop offset="0%" stop-color="#ffffff"/><stop offset="18%" stop-color="#d9c2ff" stop-opacity=".9"/><stop offset="58%" stop-color="#8e55ff" stop-opacity=".24"/><stop offset="100%" stop-color="#000" stop-opacity="0"/>
    </radialGradient>
    <linearGradient id="edge" x1="0" y1="0" x2="1" y2="1">
      <stop offset="0%" stop-color="#ffffff"/><stop offset="46%" stop-color="#b47cff"/><stop offset="100%" stop-color="#69b6ff"/>
    </linearGradient>
    <filter id="b90" x="-30%" y="-30%" width="160%" height="160%"><feGaussianBlur stdDeviation="62"/></filter>
    <filter id="b22" x="-30%" y="-30%" width="160%" height="160%"><feGaussianBlur stdDeviation="20"/></filter>
    <filter id="b6" x="-40%" y="-40%" width="180%" height="180%"><feGaussianBlur stdDeviation="6"/></filter>
    <filter id="glow" x="-70%" y="-70%" width="240%" height="240%"><feGaussianBlur stdDeviation="4" result="b"/><feMerge><feMergeNode in="b"/><feMergeNode in="SourceGraphic"/></feMerge></filter>
    <filter id="hot" x="-90%" y="-90%" width="280%" height="280%"><feGaussianBlur stdDeviation="7" result="b1"/><feMerge><feMergeNode in="b1"/><feMergeNode in="SourceGraphic"/></feMerge></filter>
    <filter id="dust" x="-20%" y="-20%" width="140%" height="140%">
      <feTurbulence type="fractalNoise" baseFrequency=".006 .015" numOctaves="2" seed="225"/>
      <feColorMatrix type="matrix" values="1 0 0 0 0 0 1 0 0 0 0 0 1.2 0 0 0 0 0 .5 0"/>
    </filter>
    <mask id="dustMask"><rect width="1600" height="900" fill="#fff" filter="url(#dust)" opacity=".7"/></mask>

    <g id="spark">
      <line x1="-7" y1="0" x2="7" y2="0" stroke="#fff" stroke-width=".9"/><line x1="0" y1="-7" x2="0" y2="7" stroke="#fff" stroke-width=".9"/>
    </g>

    <!-- 3D isometric domino (6|5), mp-lobby palette (violet/blue) -->
    <g id="tile">
      <polygon points="0,0 0,26 82.5,164 82.5,138" fill="#08041c" fill-opacity=".9"/>
      <polygon points="82.5,138 82.5,164 382.5,56 382.5,30" fill="#05030f" fill-opacity=".92"/>
      <polygon points="0,0 300,-108 382.5,30 82.5,138" fill="#07051a" fill-opacity=".9" stroke="url(#edge)" stroke-width="2.2" filter="url(#glow)"/>
      <line x1="3" y1="-2" x2="298" y2="-106" stroke="#e9deff" stroke-opacity=".5" stroke-width="1.2"/>
      <line x1="150" y1="-54" x2="232.5" y2="84" stroke="#b47cff" stroke-opacity=".5" stroke-width="1.4"/>
      <g stroke="#b47cff" stroke-width=".7" stroke-opacity=".26">
        <line x1="55.7" y1="18" x2="131.7" y2="-9.4"/><line x1="55.7" y1="18" x2="78.3" y2="55.7"/><line x1="131.7" y1="-9.4" x2="154.3" y2="28.3"/>
        <line x1="78.3" y1="55.7" x2="154.3" y2="28.3"/><line x1="78.3" y1="55.7" x2="100.8" y2="93.4"/><line x1="154.3" y1="28.3" x2="176.8" y2="66"/>
        <line x1="100.8" y1="93.4" x2="176.8" y2="66"/><line x1="176.8" y1="66" x2="266.3" y2="-12"/>
        <line x1="205.7" y1="-36" x2="266.3" y2="-12"/><line x1="266.3" y1="-12" x2="250.8" y2="39.4"/><line x1="281.7" y1="-63.4" x2="326.8" y2="12"/>
      </g>
      <g filter="url(#hot)">
        <circle cx="55.7" cy="18" r="6.2" fill="#b47cff"/><circle cx="131.7" cy="-9.4" r="6" fill="#fff"/><circle cx="78.3" cy="55.7" r="6" fill="#fff"/>
        <circle cx="154.3" cy="28.3" r="6.2" fill="#b47cff"/><circle cx="100.8" cy="93.4" r="6" fill="#fff"/><circle cx="176.8" cy="66" r="6.2" fill="#b47cff"/>
        <circle cx="205.7" cy="-36" r="6.4" fill="#69b6ff"/><circle cx="281.7" cy="-63.4" r="6" fill="#fff"/><circle cx="266.3" cy="-12" r="6.2" fill="#b47cff"/>
        <circle cx="250.8" cy="39.4" r="6" fill="#fff"/><circle cx="326.8" cy="12" r="6.4" fill="#69b6ff"/>
      </g>
    </g>
  </defs>

  <!-- base + dust -->
  <rect width="1600" height="900" fill="url(#bg)"/>
  <rect width="1600" height="900" fill="#161235" opacity=".34" mask="url(#dustMask)"/>

  <!-- deep perspective grid -->
  <g stroke="#b47cff" stroke-opacity=".05" stroke-width="1">
    <path d="M800 470 L-200 980"/><path d="M800 470 L240 980"/><path d="M800 470 L560 980"/><path d="M800 470 L800 980"/>
    <path d="M800 470 L1040 980"/><path d="M800 470 L1360 980"/><path d="M800 470 L1800 980"/>
    <path d="M-100 560 H1700" stroke-opacity=".06"/><path d="M-100 640 H1700" stroke-opacity=".07"/><path d="M-100 740 H1700" stroke-opacity=".085"/><path d="M-100 870 H1700" stroke-opacity=".1"/>
  </g>

  <!-- nebula layers (static) -->
  <g filter="url(#b90)">
    <ellipse cx="520" cy="240" rx="650" ry="360" fill="url(#nebViolet)"/>
    <ellipse cx="1140" cy="640" rx="630" ry="380" fill="url(#nebBlue)"/>
    <ellipse cx="900" cy="450" rx="430" ry="300" fill="url(#nebViolet2)"/>
  </g>
  <!-- flowing light streams -->
  <path d="M-140 245 C260 130 450 390 790 250 C1080 132 1250 310 1740 225" fill="none" stroke="#b47cff" stroke-opacity=".12" stroke-width="86" stroke-linecap="round" filter="url(#b22)"/>
  <path d="M-120 610 C210 495 500 710 810 540 C1120 370 1320 565 1720 430" fill="none" stroke="#69b6ff" stroke-opacity=".10" stroke-width="68" stroke-linecap="round" filter="url(#b22)"/>

  <!-- BACK graph network (static structure) -->
  <g opacity=".4" filter="url(#b6)">
    <g stroke="#b47cff" stroke-opacity=".16" stroke-width="1" fill="none">
      <path d="M120 720 L300 640 L210 500 L380 430 L300 640"/><path d="M380 430 L560 500 L640 360 L470 300 L380 430"/>
      <path d="M640 360 L860 410 L980 300 L1140 360 L1280 250"/><path d="M860 410 L900 560 L1080 600 L1140 360"/>
      <path d="M1280 250 L1460 320 L1500 470 L1320 520 L1080 600"/>
    </g>
    <g fill="#d9c2ff" fill-opacity=".55">
      <circle cx="300" cy="640" r="3"/><circle cx="380" cy="430" r="3.4"/><circle cx="560" cy="500" r="2.6"/><circle cx="640" cy="360" r="3"/><circle cx="860" cy="410" r="3.4"/>
      <circle cx="980" cy="300" r="2.6"/><circle cx="1140" cy="360" r="3"/><circle cx="1280" cy="250" r="3.2"/><circle cx="1080" cy="600" r="3"/><circle cx="1460" cy="320" r="2.8"/><circle cx="470" cy="300" r="2.6"/>
    </g>
  </g>

  <!-- dense starfield -->
  <g fill="#fff">
    <circle cx="70" cy="120" r=".8"/><circle class="tw" cx="180" cy="70" r="1.1"/><circle cx="260" cy="200" r=".7"/><circle cx="350" cy="60" r=".9"/><circle class="tw" cx="470" cy="150" r="1.2" style="animation-delay:1.3s"/><circle cx="560" cy="40" r=".7"/><circle cx="690" cy="120" r=".9"/><circle class="tw" cx="820" cy="70" r="1.1" style="animation-delay:.6s"/><circle cx="940" cy="150" r=".8"/><circle cx="1080" cy="60" r=".9"/><circle class="tw" cx="1210" cy="130" r="1.2" style="animation-delay:2.1s"/><circle cx="1340" cy="80" r=".8"/><circle cx="1470" cy="160" r="1"/><circle cx="1560" cy="90" r=".8"/>
    <circle cx="110" cy="420" r=".8"/><circle class="tw" cx="40" cy="560" r="1" style="animation-delay:1.8s"/><circle cx="240" cy="730" r=".9"/><circle cx="430" cy="820" r=".8"/><circle class="tw" cx="610" cy="780" r="1.1" style="animation-delay:.9s"/><circle cx="780" cy="850" r=".7"/><circle cx="980" cy="800" r=".9"/><circle class="tw" cx="1180" cy="840" r="1" style="animation-delay:2.6s"/><circle cx="1360" cy="770" r=".8"/><circle cx="1520" cy="820" r="1"/><circle cx="1440" cy="640" r=".8"/><circle cx="1300" cy="700" r=".7"/>
  </g>
  <!-- chaotic STATIC glint field -->
  <g>
    <use href="#spark" x="150" y="250" opacity=".7" style="color:#b47cff"/>
    <g opacity=".8" filter="url(#glow)"><circle cx="320" cy="350" r="2.4" fill="#b47cff"/><circle cx="640" cy="220" r="1.8" fill="#fff"/><circle cx="1000" cy="430" r="2.8" fill="#69b6ff"/><circle cx="1280" cy="560" r="2" fill="#d9c2ff"/><circle cx="500" cy="640" r="2.4" fill="#fff"/><circle cx="860" cy="690" r="1.9" fill="#b47cff"/><circle cx="1180" cy="200" r="2.6" fill="#fff"/><circle cx="210" cy="540" r="2" fill="#69b6ff"/></g>
    <g opacity=".55"><circle cx="400" cy="180" r="1.3" fill="#fff"/><circle cx="720" cy="540" r="1.6" fill="#b47cff"/><circle cx="940" cy="600" r="1.2" fill="#fff"/><circle cx="1120" cy="700" r="1.5" fill="#69b6ff"/><circle cx="1400" cy="430" r="1.3" fill="#fff"/><circle cx="600" cy="320" r="1.4" fill="#d9c2ff"/><circle cx="260" cy="660" r="1.2" fill="#fff"/><circle cx="1500" cy="640" r="1.5" fill="#b47cff"/><circle cx="80" cy="320" r="1.2" fill="#fff"/><circle cx="1060" cy="120" r="1.4" fill="#fff"/><circle cx="780" cy="160" r="1.2" fill="#69b6ff"/><circle cx="1340" cy="300" r="1.3" fill="#d9c2ff"/></g>
    <use href="#spark" x="1090" y="330" opacity=".6" style="color:#69b6ff"/>
    <use href="#spark" x="430" y="470" opacity=".55" style="color:#b47cff"/>
    <use href="#spark" x="900" y="250" opacity=".5" style="color:#fff"/>
    <g opacity=".5"><circle cx="140" cy="430" r="1.1" fill="#fff"/><circle cx="350" cy="500" r="1.3" fill="#b47cff"/><circle cx="540" cy="430" r="1.1" fill="#fff"/><circle cx="700" cy="380" r="1.2" fill="#69b6ff"/><circle cx="820" cy="540" r="1.4" fill="#fff"/><circle cx="1010" cy="560" r="1.1" fill="#d9c2ff"/><circle cx="1160" cy="470" r="1.3" fill="#b47cff"/><circle cx="1300" cy="640" r="1.2" fill="#fff"/><circle cx="1440" cy="540" r="1.1" fill="#69b6ff"/><circle cx="240" cy="300" r="1.2" fill="#fff"/><circle cx="560" cy="200" r="1.1" fill="#d9c2ff"/><circle cx="980" cy="260" r="1.3" fill="#fff"/><circle cx="1240" cy="160" r="1.1" fill="#b47cff"/><circle cx="660" cy="660" r="1.2" fill="#fff"/><circle cx="380" cy="720" r="1.1" fill="#69b6ff"/><circle cx="1120" cy="760" r="1.3" fill="#fff"/></g>
    <g opacity=".4" filter="url(#glow)"><circle cx="700" cy="300" r="1.7" fill="#b47cff"/><circle cx="1150" cy="380" r="2" fill="#fff"/><circle cx="460" cy="380" r="1.8" fill="#69b6ff"/><circle cx="1330" cy="500" r="1.9" fill="#d9c2ff"/><circle cx="160" cy="220" r="1.7" fill="#fff"/></g>
  </g>

  <!-- FRONT graph network with data-pulses (static nodes) -->
  <g opacity=".82">
    <g fill="none">
      <path d="M185 690 L390 545 L620 620 L820 420 L1040 500 L1260 310 L1455 390" stroke="#b47cff" stroke-opacity=".22" stroke-width="1.1"/>
      <path d="M305 200 L560 285 L790 170 L1030 265 L1275 175 L1510 260" stroke="#69b6ff" stroke-opacity=".16" stroke-width="1.1"/>
      <path class="pulseEdge" d="M185 690 L390 545 L620 620 L820 420 L1040 500 L1260 310 L1455 390" stroke="#e9deff" stroke-width="1.8"/>
      <path class="pulseEdge" style="animation-delay:2.5s" d="M305 200 L560 285 L790 170 L1030 265 L1275 175 L1510 260" stroke="#cfe6ff" stroke-width="1.8"/>
    </g>
    <g filter="url(#glow)">
      <circle cx="390" cy="545" r="3.4" fill="#b47cff"/><circle cx="620" cy="620" r="2.8" fill="#fff"/><circle cx="820" cy="420" r="3.8" fill="#69b6ff"/><circle cx="1040" cy="500" r="3" fill="#b47cff"/><circle cx="1260" cy="310" r="3.2" fill="#fff"/><circle cx="560" cy="285" r="2.8" fill="#b47cff"/><circle cx="1030" cy="265" r="3.2" fill="#fff"/><circle cx="790" cy="170" r="2.8" fill="#69b6ff"/>
    </g>
  </g>

  <!-- single FARTHEST domino only (small, faint, blurred) -->
  <g opacity=".16" filter="url(#b6)" transform="translate(980 130) rotate(9) scale(.3)"><use href="#tile"/></g>

  <!-- floating glints: scattered, each appears from several points (invisible jumps) -->
  <g>
    <circle class="fa" cx="120" cy="200" r="2.4" fill="#b47cff" filter="url(#glow)" style="animation-duration:14s"/>
    <circle class="fc" cx="250" cy="640" r="1.3" fill="#fff" style="animation-duration:19s;animation-delay:3s"/>
    <circle class="fe" cx="360" cy="330" r="2.9" fill="#69b6ff" filter="url(#hot)" style="animation-duration:12s;animation-delay:6s"/>
    <circle class="fb" cx="470" cy="540" r="1.6" fill="#d9c2ff" style="animation-duration:17s;animation-delay:1s"/>
    <circle class="fg" cx="560" cy="180" r="2.2" fill="#fff" filter="url(#glow)" style="animation-duration:15s;animation-delay:8s"/>
    <circle class="fd" cx="640" cy="430" r="1.2" fill="#b47cff" style="animation-duration:20s;animation-delay:2s"/>
    <circle class="fb" cx="720" cy="680" r="3" fill="#69b6ff" filter="url(#hot)" style="animation-duration:13s;animation-delay:5s"/>
    <circle class="ff" cx="810" cy="300" r="1.5" fill="#fff" style="animation-duration:18s;animation-delay:11s"/>
    <circle class="fa" cx="880" cy="560" r="2.3" fill="#b47cff" filter="url(#glow)" style="animation-duration:13s;animation-delay:4s"/>
    <circle class="fc" cx="960" cy="160" r="1.4" fill="#d9c2ff" style="animation-duration:21s;animation-delay:7s"/>
    <circle class="fg" cx="1040" cy="470" r="2.7" fill="#fff" filter="url(#hot)" style="animation-duration:16s;animation-delay:13s"/>
    <circle class="fb" cx="1130" cy="650" r="1.3" fill="#69b6ff" style="animation-duration:19s;animation-delay:6s"/>
    <circle class="fg" cx="1210" cy="250" r="2.5" fill="#b47cff" filter="url(#glow)" style="animation-duration:15s;animation-delay:9s"/>
    <circle class="fd" cx="1290" cy="540" r="1.6" fill="#fff" style="animation-duration:17s;animation-delay:2.5s"/>
    <circle class="fh" cx="1370" cy="360" r="3.1" fill="#d9c2ff" filter="url(#hot)" style="animation-duration:11s;animation-delay:14s"/>
    <circle class="ff" cx="1460" cy="600" r="1.4" fill="#fff" style="animation-duration:20s;animation-delay:7.5s"/>
    <circle class="fa" cx="1520" cy="260" r="2.4" fill="#69b6ff" filter="url(#glow)" style="animation-duration:14s;animation-delay:3.5s"/>
    <circle class="fc" cx="180" cy="450" r="1.5" fill="#b47cff" style="animation-duration:22s;animation-delay:12s"/>
    <circle class="fd" cx="430" cy="720" r="2.6" fill="#fff" filter="url(#hot)" style="animation-duration:14s;animation-delay:5.5s"/>
    <circle class="fb" cx="700" cy="120" r="1.2" fill="#69b6ff" style="animation-duration:23s;animation-delay:15s"/>
    <circle class="fg" cx="980" cy="700" r="1.7" fill="#fff" filter="url(#glow)" style="animation-duration:18s;animation-delay:9.5s"/>
    <circle class="fd" cx="1180" cy="430" r="1.3" fill="#d9c2ff" style="animation-duration:21s;animation-delay:16s"/>
    <circle class="fh" cx="1340" cy="700" r="1.8" fill="#b47cff" filter="url(#glow)" style="animation-duration:16s;animation-delay:6.5s"/>
    <circle class="ff" cx="540" cy="380" r="1.3" fill="#fff" style="animation-duration:24s;animation-delay:18s"/>
    <circle class="fa" cx="300" cy="540" r="1.5" fill="#d9c2ff" filter="url(#glow)" style="animation-duration:19s;animation-delay:10s"/>
    <circle class="fe" cx="1080" cy="320" r="1.4" fill="#b47cff" style="animation-duration:20s;animation-delay:4.5s"/>
  </g>

  <!-- lens flares: float like the other glints (wander + fade), distinct flows, slow tempo -->
  <g transform="translate(236 290)"><g class="fd" style="animation-duration:23s"><use href="#spark" transform="scale(2.4)"/><circle r="56" fill="url(#flareG)" opacity=".38"/></g></g>
  <g transform="translate(1330 214)"><g class="fg" style="animation-duration:27s;animation-delay:6s"><use href="#spark" transform="scale(3)"/><circle r="70" fill="url(#flareG)" opacity=".32"/></g></g>
  <g transform="translate(900 360)"><g class="fb" style="animation-duration:25s;animation-delay:12s"><circle r="30" fill="url(#flareG)" opacity=".26"/></g></g>

  <!-- vignette + grain -->
  <radialGradient id="vig" cx="50%" cy="48%" r="72%"><stop offset="60%" stop-color="#000" stop-opacity="0"/><stop offset="100%" stop-color="#000" stop-opacity=".55"/></radialGradient>
  <rect width="1600" height="900" fill="url(#vig)"/>
  <rect width="1600" height="900" fill="#0c0a1a" opacity=".16" mask="url(#dustMask)"/>
</svg>
